<svg width="734" height="734" viewBox="0 0 734 734" fill="none" xmlns="http://www.w3.org/2000/svg">
<path fill-rule="evenodd" clip-rule="evenodd" d="M367 734C569.688 734 734 569.688 734 367C734 164.312 569.688 0 367 0C164.311 0 0 164.312 0 367C0 569.688 164.311 734 367 734ZM407 171C407 148.91 389.091 131 367 131C344.909 131 327 148.91 327 171V327H171C148.909 327 131 344.906 131 367C131 389.09 148.909 407 171 407H327V563C327 585.09 344.909 603 367 603C389.091 603 407 585.09 407 563V407H563C585.091 407 603 389.09 603 367C603 344.906 585.091 327 563 327H407V171Z" fill="#F86D11"/>
</svg>
