<svg width="734" height="734" viewBox="0 0 734 734" fill="none" xmlns="http://www.w3.org/2000/svg">
<path fill-rule="evenodd" clip-rule="evenodd" d="M0 366.667C0 164.162 164.162 0 366.667 0C569.17 0 733.333 164.162 733.333 366.667C733.333 569.17 569.17 733.333 366.667 733.333C164.162 733.333 0 569.17 0 366.667ZM580.527 290.135C593.517 277.089 593.47 255.984 580.423 242.995L556.803 219.475C543.757 206.486 522.653 206.531 509.663 219.577L317.277 412.793L206.574 303.63C193.466 290.706 172.361 290.853 159.435 303.963L136.031 327.697C123.105 340.803 123.253 361.91 136.361 374.837L294.304 530.58C307.367 543.463 328.383 543.367 341.33 530.367L580.527 290.135Z" fill="#F8B411"/>
</svg>
