<svg width="555" height="300" viewBox="0 0 555 300" fill="none" xmlns="http://www.w3.org/2000/svg">
<path fill-rule="evenodd" clip-rule="evenodd" d="M289.265 299.409C289.372 299.364 289.627 299.323 289.832 299.319C290.037 299.315 290.27 299.247 290.35 299.168C290.455 299.064 290.712 299.024 291.266 299.024C292.11 299.024 293.403 298.837 293.403 298.716C293.403 298.673 293.666 298.639 293.987 298.639C294.312 298.639 294.571 298.596 294.571 298.543C294.571 298.49 294.812 298.447 295.107 298.447C295.416 298.447 295.642 298.404 295.642 298.345C295.642 298.197 296.264 297.966 296.661 297.966C296.851 297.966 297.005 297.927 297.005 297.881C297.005 297.766 297.779 297.581 298.258 297.581C298.474 297.581 298.712 297.517 298.793 297.436C298.873 297.357 298.986 297.292 299.043 297.292C299.1 297.292 299.147 297.249 299.147 297.196C299.147 297.143 299.368 297.1 299.638 297.1C299.985 297.1 300.187 297.046 300.326 296.918C300.525 296.735 300.923 296.619 301.35 296.619C301.477 296.619 301.581 296.575 301.581 296.523C301.581 296.47 301.647 296.426 301.727 296.426C301.808 296.426 301.873 296.383 301.873 296.33C301.873 296.277 302.06 296.234 302.288 296.234C302.596 296.234 302.771 296.172 302.965 295.993C303.11 295.861 303.341 295.753 303.48 295.753C303.618 295.753 303.82 295.672 303.928 295.572C304.043 295.466 304.322 295.373 304.606 295.346C304.937 295.314 305.144 295.236 305.269 295.094C305.382 294.964 305.564 294.887 305.755 294.887C305.922 294.887 306.06 294.838 306.06 294.777C306.06 294.609 306.372 294.413 306.645 294.409C306.781 294.407 306.943 294.321 307.011 294.214C307.078 294.108 307.224 294.021 307.336 294.021C307.56 294.021 308.104 293.734 308.104 293.616C308.104 293.574 308.258 293.54 308.445 293.54C308.635 293.54 308.786 293.492 308.786 293.431C308.786 293.262 309.099 293.066 309.373 293.062C309.508 293.061 309.682 292.973 309.759 292.867C309.837 292.761 309.996 292.674 310.114 292.674C310.232 292.674 310.459 292.566 310.618 292.434C310.777 292.302 311.001 292.193 311.117 292.193C311.232 292.193 311.428 292.085 311.552 291.953C311.693 291.802 311.884 291.712 312.061 291.712C312.233 291.712 312.4 291.637 312.485 291.52C312.563 291.414 312.699 291.328 312.789 291.328C312.878 291.328 313.055 291.22 313.181 291.089C313.307 290.957 313.487 290.849 313.581 290.848C313.674 290.847 313.751 290.789 313.751 290.719C313.751 290.588 314.017 290.425 314.408 290.317C314.529 290.284 314.627 290.195 314.627 290.119C314.627 290.043 314.695 289.981 314.778 289.981C314.861 289.981 315.03 289.873 315.154 289.74C315.29 289.595 315.487 289.5 315.649 289.5C315.798 289.5 315.99 289.422 316.076 289.326C316.163 289.231 316.376 289.096 316.55 289.026C316.724 288.956 316.867 288.84 316.867 288.767C316.867 288.689 316.968 288.634 317.11 288.634C317.244 288.634 317.353 288.588 317.353 288.531C317.353 288.368 317.614 288.153 317.812 288.153C317.911 288.153 318.055 288.066 318.132 287.961C318.209 287.855 318.318 287.768 318.374 287.768C318.429 287.768 318.593 287.66 318.738 287.528C318.882 287.395 319.071 287.287 319.158 287.287C319.245 287.287 319.513 287.092 319.754 286.854C319.995 286.616 320.237 286.421 320.292 286.421C320.347 286.421 320.478 286.313 320.584 286.181C320.689 286.049 320.859 285.94 320.963 285.94C321.066 285.94 321.15 285.897 321.15 285.844C321.15 285.791 321.196 285.748 321.252 285.748C321.384 285.748 321.832 285.306 321.832 285.175C321.832 285.12 321.9 285.075 321.983 285.075C322.065 285.075 322.235 284.966 322.359 284.834C322.483 284.702 322.661 284.594 322.755 284.594C322.849 284.594 323.205 284.312 323.546 283.968C323.888 283.624 324.209 283.343 324.261 283.343C324.312 283.343 324.464 283.235 324.598 283.102C324.732 282.97 324.909 282.862 324.991 282.862C325.073 282.862 325.448 282.559 325.824 282.189C326.199 281.818 326.572 281.515 326.652 281.515C326.732 281.515 326.797 281.466 326.797 281.405C326.797 281.258 327.098 281.041 327.308 281.037C327.402 281.035 327.479 280.991 327.479 280.938C327.479 280.885 327.524 280.842 327.58 280.842C327.713 280.842 328.16 280.399 328.16 280.269C328.16 280.214 328.206 280.168 328.262 280.168C328.371 280.168 328.842 279.736 328.842 279.637C328.842 279.56 329.102 279.302 329.18 279.302C329.213 279.302 329.359 279.193 329.503 279.06C329.648 278.926 329.854 278.736 329.961 278.637C330.068 278.539 330.266 278.426 330.399 278.386C330.533 278.347 331.029 277.931 331.502 277.462C331.974 276.993 332.406 276.609 332.461 276.609C332.517 276.609 332.648 276.501 332.754 276.368C332.859 276.236 333.026 276.128 333.125 276.128C333.224 276.128 333.916 275.538 334.676 274.805C336.498 273.048 336.496 273.049 336.724 273.049C336.833 273.049 336.923 273.013 336.923 272.969C336.923 272.925 337.032 272.832 337.166 272.761C337.3 272.69 337.409 272.593 337.409 272.545C337.409 272.425 337.665 272.184 337.792 272.184C337.849 272.184 337.896 272.151 337.896 272.111C337.896 272.015 338.339 271.51 338.423 271.51C338.495 271.51 338.656 271.386 339.016 271.053C339.145 270.934 339.319 270.837 339.403 270.837C339.488 270.837 340.061 270.339 340.677 269.73C341.293 269.122 341.832 268.624 341.875 268.624C341.917 268.624 342.054 268.516 342.18 268.384C342.306 268.251 342.49 268.143 342.59 268.143C342.78 268.143 343.446 267.547 343.446 267.377C343.446 267.322 343.493 267.277 343.55 267.277C343.685 267.277 343.932 267.033 343.932 266.899C343.932 266.843 343.979 266.796 344.035 266.796C344.092 266.796 344.333 266.601 344.57 266.363C344.808 266.125 345.068 265.93 345.149 265.93C345.229 265.93 345.295 265.884 345.295 265.827C345.295 265.673 345.552 265.449 345.731 265.449C345.817 265.449 346.222 265.125 346.632 264.728C347.041 264.331 347.412 264.006 347.456 264.006C347.499 264.006 347.535 263.968 347.535 263.922C347.535 263.83 348.279 263.044 348.366 263.044C348.426 263.044 348.603 262.905 348.947 262.587C349.075 262.468 349.251 262.371 349.337 262.371C349.423 262.371 349.995 261.873 350.608 261.265C351.221 260.656 351.788 260.158 351.868 260.158C351.948 260.158 352.013 260.109 352.013 260.049C352.013 259.901 352.314 259.684 352.524 259.68C352.618 259.679 352.695 259.634 352.695 259.581C352.695 259.528 352.74 259.485 352.796 259.485C352.929 259.485 353.376 259.043 353.376 258.912C353.376 258.857 353.422 258.812 353.478 258.812C353.61 258.812 354.058 258.369 354.058 258.239C354.058 258.183 354.103 258.138 354.159 258.138C354.292 258.138 354.739 257.696 354.739 257.565C354.739 257.51 354.807 257.465 354.89 257.465C354.973 257.465 355.142 257.357 355.266 257.224C355.39 257.092 355.566 256.984 355.658 256.984C355.749 256.984 356.307 256.508 356.898 255.926C357.49 255.343 358.01 254.867 358.056 254.867C358.101 254.867 358.247 254.759 358.381 254.627C358.515 254.495 358.692 254.386 358.774 254.386C358.94 254.386 360.581 252.817 360.581 252.659C360.581 252.604 360.627 252.558 360.684 252.558C360.74 252.558 360.981 252.364 361.219 252.126C361.456 251.887 361.717 251.693 361.797 251.693C361.878 251.693 361.944 251.646 361.944 251.59C361.944 251.42 362.208 251.212 362.424 251.212C362.535 251.212 362.625 251.168 362.625 251.115C362.625 251.063 362.667 251.019 362.718 251.019C362.839 251.019 363.307 250.557 363.307 250.438C363.307 250.387 363.362 250.346 363.43 250.346C363.497 250.346 363.637 250.235 363.74 250.099C364.046 249.697 364.25 249.48 364.323 249.48C364.409 249.48 364.67 249.227 364.67 249.143C364.67 249.065 364.929 248.807 365.008 248.807C365.074 248.807 365.242 248.676 365.595 248.35C365.724 248.231 365.899 248.133 365.985 248.133C366.07 248.133 366.755 247.527 367.507 246.786C368.259 246.046 368.918 245.44 368.973 245.44C369.027 245.44 369.158 245.331 369.263 245.199C369.368 245.067 369.538 244.959 369.64 244.959C369.839 244.959 370.511 244.371 370.511 244.197C370.511 244.14 370.557 244.093 370.612 244.093C370.743 244.093 371.388 243.456 371.388 243.326C371.388 243.272 371.434 243.227 371.49 243.227C371.546 243.227 371.892 242.935 372.258 242.578C373.135 241.723 373.538 241.399 373.724 241.399C373.808 241.399 373.939 241.312 374.016 241.207C374.094 241.101 374.213 241.014 374.281 241.014C374.35 241.014 374.406 240.979 374.406 240.937C374.406 240.824 375.049 240.148 375.157 240.148C375.208 240.148 375.308 240.04 375.379 239.908C375.451 239.776 375.568 239.667 375.639 239.667C375.71 239.667 375.77 239.635 375.771 239.595C375.775 239.471 376.426 238.802 376.543 238.802C376.604 238.802 376.756 238.693 376.88 238.561C377.004 238.429 377.178 238.321 377.268 238.321C377.357 238.321 378.131 237.628 378.988 236.781C379.844 235.935 380.592 235.242 380.65 235.242C380.708 235.242 380.841 235.134 380.946 235.002C381.051 234.869 381.224 234.761 381.33 234.761C381.531 234.761 382 234.361 382 234.188C382 234.133 382.046 234.088 382.102 234.088C382.234 234.088 382.681 233.646 382.681 233.515C382.681 233.46 382.727 233.414 382.782 233.414C382.913 233.414 383.558 232.777 383.558 232.648C383.558 232.593 383.603 232.549 383.659 232.549C383.715 232.549 383.868 232.451 383.999 232.332C384.609 231.777 384.711 231.7 384.93 231.632C385.059 231.592 385.859 230.872 386.707 230.033C387.556 229.194 388.296 228.508 388.351 228.508C388.406 228.508 388.522 228.428 388.609 228.329C388.695 228.231 388.87 228.118 388.998 228.078C389.126 228.039 390.034 227.221 391.016 226.261C393.248 224.08 393.244 224.083 393.488 224.083C393.694 224.083 394.364 223.496 394.364 223.316C394.364 223.262 394.411 223.217 394.469 223.217C394.603 223.217 394.851 222.972 394.851 222.839C394.851 222.782 394.896 222.736 394.952 222.736C395.083 222.736 395.727 222.099 395.727 221.97C395.727 221.915 395.773 221.87 395.829 221.87C395.885 221.87 396.038 221.773 396.169 221.654C396.78 221.098 396.881 221.022 397.1 220.955C397.229 220.915 398.112 220.109 399.063 219.164C400.015 218.218 400.834 217.445 400.885 217.445C400.935 217.445 401.085 217.337 401.219 217.204C401.353 217.072 401.531 216.964 401.614 216.964C401.698 216.964 402.683 216.066 403.803 214.968C406.026 212.79 406.089 212.731 406.238 212.731C406.294 212.731 406.34 212.696 406.34 212.654C406.34 212.612 406.493 212.522 406.68 212.455C406.868 212.389 407.021 212.272 407.021 212.196C407.021 212.12 407.066 212.058 407.122 212.058C407.253 212.058 407.897 211.421 407.897 211.291C407.897 211.237 407.944 211.192 408.002 211.192C408.136 211.192 408.384 210.947 408.384 210.814C408.384 210.757 408.424 210.711 408.473 210.711C408.596 210.711 409.26 210.063 409.26 209.943C409.26 209.889 409.307 209.845 409.365 209.845C409.478 209.845 409.747 209.608 409.747 209.508C409.747 209.429 410.006 209.172 410.085 209.172C410.151 209.172 410.319 209.041 410.672 208.715C410.801 208.596 410.978 208.498 411.066 208.498C411.153 208.498 412.144 207.589 413.268 206.478C414.392 205.367 415.364 204.458 415.429 204.458C415.493 204.458 415.609 204.371 415.686 204.265C415.763 204.159 415.907 204.073 416.007 204.073C416.204 204.073 416.465 203.858 416.465 203.695C416.465 203.638 416.51 203.592 416.565 203.592C416.697 203.592 417.828 202.476 417.828 202.346C417.828 202.29 417.873 202.245 417.928 202.245C418.059 202.245 418.704 201.608 418.704 201.479C418.704 201.424 418.75 201.379 418.806 201.379C418.938 201.379 420.067 200.262 420.067 200.132C420.067 200.077 420.113 200.032 420.17 200.032C420.227 200.032 420.467 199.838 420.705 199.6C420.943 199.361 421.203 199.167 421.284 199.167C421.364 199.167 421.43 199.12 421.43 199.064C421.43 198.907 421.688 198.686 421.869 198.686C421.957 198.686 422.227 198.491 422.468 198.253C422.709 198.015 422.946 197.82 422.996 197.82C423.045 197.82 423.085 197.785 423.085 197.742C423.085 197.644 424.418 196.3 424.771 196.041C424.915 195.936 425.032 195.795 425.032 195.729C425.032 195.662 425.098 195.607 425.178 195.607C425.259 195.607 425.325 195.575 425.325 195.535C425.325 195.439 425.767 194.934 425.851 194.934C425.923 194.934 426.084 194.81 426.444 194.477C426.573 194.358 426.749 194.26 426.835 194.26C426.921 194.26 428.106 193.156 429.469 191.807C430.832 190.458 432.012 189.354 432.092 189.354C432.172 189.354 432.237 189.296 432.237 189.226C432.237 189.095 432.503 188.933 432.894 188.824C433.015 188.791 433.113 188.702 433.113 188.626C433.113 188.55 433.16 188.488 433.218 188.488C433.275 188.488 433.385 188.426 433.461 188.351C433.537 188.275 433.6 188.167 433.6 188.11C433.6 188.054 433.645 188.007 433.701 188.007C433.756 188.007 433.953 187.857 434.139 187.674C434.324 187.49 434.476 187.296 434.476 187.241C434.476 187.186 434.523 187.141 434.581 187.141C434.694 187.141 434.963 186.905 434.963 186.805C434.963 186.726 435.222 186.468 435.301 186.468C435.402 186.468 435.839 186.002 435.839 185.895C435.839 185.84 435.884 185.795 435.94 185.795C436.072 185.795 437.202 184.679 437.202 184.549C437.202 184.493 437.248 184.448 437.304 184.448C437.36 184.448 437.908 183.95 438.523 183.341C439.138 182.733 439.705 182.235 439.784 182.235C439.864 182.235 439.928 182.189 439.928 182.132C439.928 181.976 440.186 181.754 440.368 181.754C440.457 181.754 441.231 181.061 442.088 180.215C442.945 179.368 443.686 178.676 443.735 178.676C443.783 178.676 443.823 178.639 443.823 178.595C443.823 178.487 445.373 176.944 445.481 176.944C445.528 176.944 445.676 176.836 445.81 176.704C445.944 176.571 446.122 176.463 446.205 176.463C446.374 176.463 448.885 174.034 448.885 173.871C448.885 173.815 448.933 173.769 448.991 173.769C449.048 173.769 449.355 173.513 449.672 173.2C449.989 172.887 450.248 172.584 450.248 172.526C450.248 172.469 450.297 172.423 450.356 172.423C450.414 172.423 451.043 171.845 451.752 171.138C452.461 170.432 453.18 169.773 453.349 169.674C453.518 169.576 453.656 169.461 453.656 169.42C453.656 169.378 453.733 169.343 453.826 169.341C454.037 169.337 454.338 169.121 454.338 168.973C454.338 168.912 454.383 168.863 454.438 168.863C454.493 168.863 454.691 168.713 454.876 168.53C455.062 168.346 455.214 168.151 455.214 168.097C455.214 168.042 455.26 167.997 455.316 167.997C455.371 167.997 455.525 167.891 455.656 167.761C455.788 167.631 455.895 167.48 455.895 167.424C455.895 167.369 455.941 167.324 455.997 167.324C456.053 167.324 456.206 167.218 456.338 167.088C456.469 166.958 456.577 166.806 456.577 166.751C456.577 166.696 456.622 166.65 456.677 166.65C456.809 166.65 457.94 165.535 457.94 165.405C457.94 165.349 457.985 165.304 458.04 165.304C458.096 165.304 458.293 165.154 458.479 164.97C458.664 164.787 458.816 164.592 458.816 164.537C458.816 164.483 458.862 164.438 458.918 164.438C458.974 164.438 459.127 164.332 459.259 164.202C459.39 164.072 459.498 163.92 459.498 163.865C459.498 163.81 459.543 163.764 459.599 163.764C459.655 163.764 459.809 163.658 459.94 163.528C460.072 163.398 460.179 163.247 460.179 163.192C460.179 163.136 460.225 163.091 460.281 163.091C460.337 163.091 460.49 162.985 460.622 162.855C460.753 162.725 460.861 162.573 460.861 162.518C460.861 162.463 460.906 162.418 460.962 162.418C461.018 162.418 461.172 162.311 461.303 162.181C461.435 162.052 461.542 161.9 461.542 161.845C461.542 161.789 461.588 161.744 461.644 161.744C461.7 161.744 461.853 161.647 461.984 161.528C462.114 161.409 462.33 161.214 462.462 161.095C462.595 160.976 462.777 160.878 462.866 160.878C462.955 160.878 464.648 159.277 466.628 157.319C468.608 155.361 470.269 153.759 470.32 153.759C470.37 153.759 470.513 153.651 470.637 153.519C470.761 153.387 470.936 153.278 471.025 153.278C471.115 153.278 473.51 150.984 476.348 148.18C479.186 145.376 481.572 143.081 481.65 143.081C481.729 143.081 481.793 143.032 481.793 142.971C481.793 142.826 482.092 142.607 482.296 142.603C482.474 142.6 483.156 141.988 483.156 141.832C483.156 141.778 483.198 141.734 483.249 141.734C483.3 141.734 483.453 141.624 483.59 141.489C483.726 141.355 483.837 141.203 483.837 141.153C483.837 141.102 483.87 141.061 483.91 141.061C484.035 141.061 484.519 140.612 484.519 140.497C484.519 140.437 484.561 140.387 484.612 140.387C484.708 140.387 485.2 139.936 485.2 139.847C485.2 139.763 485.472 139.522 485.566 139.522C485.615 139.522 485.713 139.413 485.785 139.281C485.856 139.149 485.947 139.041 485.987 139.041C486.099 139.041 486.758 138.384 486.758 138.273C486.758 138.219 486.804 138.175 486.86 138.175C486.916 138.175 487.069 138.069 487.201 137.939C487.332 137.809 487.44 137.657 487.44 137.602C487.44 137.547 487.485 137.501 487.541 137.501C487.597 137.501 487.751 137.395 487.882 137.265C488.014 137.135 488.121 136.984 488.121 136.929C488.121 136.873 488.167 136.828 488.223 136.828C488.279 136.828 488.432 136.722 488.564 136.592C488.695 136.462 488.803 136.31 488.803 136.255C488.803 136.2 488.848 136.155 488.904 136.155C489.037 136.155 489.484 135.712 489.484 135.582C489.484 135.526 489.529 135.481 489.585 135.481C489.64 135.481 489.837 135.331 490.023 135.148C490.209 134.964 490.36 134.769 490.36 134.715C490.36 134.66 490.407 134.615 490.465 134.615C490.578 134.615 490.847 134.379 490.847 134.279C490.847 134.204 491.104 133.942 491.177 133.942C491.266 133.942 491.723 133.456 491.723 133.36C491.723 133.31 491.773 133.269 491.834 133.269C491.95 133.269 492.405 132.79 492.405 132.667C492.405 132.628 492.451 132.595 492.507 132.595C492.563 132.595 492.716 132.489 492.847 132.359C492.979 132.229 493.086 132.078 493.086 132.022C493.086 131.967 493.131 131.922 493.186 131.922C493.307 131.922 493.963 131.266 493.963 131.144C493.963 131.095 494.01 131.056 494.067 131.056C494.18 131.056 494.449 130.819 494.449 130.719C494.449 130.64 494.708 130.382 494.788 130.382C494.888 130.382 495.326 129.917 495.326 129.81C495.326 129.754 495.375 129.709 495.436 129.709C495.553 129.709 496.007 129.231 496.007 129.108C496.007 129.068 496.053 129.036 496.109 129.036C496.215 129.036 496.347 128.94 496.738 128.579C496.867 128.46 497.044 128.362 497.131 128.362C497.365 128.362 542.155 84.0775 542.155 83.847C542.155 83.7448 542.265 83.6031 542.399 83.5323C542.552 83.4515 542.642 83.3201 542.642 83.1794C542.642 83.0561 542.688 82.9551 542.744 82.9551C542.876 82.9551 543.324 82.5129 543.324 82.3822C543.324 82.3269 543.369 82.2817 543.425 82.2817C543.558 82.2817 544.005 81.8395 544.005 81.7088C544.005 81.6535 544.05 81.6083 544.106 81.6083C544.303 81.6083 544.881 80.9408 544.881 80.7138C544.881 80.5697 544.971 80.4393 545.125 80.3577C545.259 80.2869 545.368 80.1697 545.368 80.0974C545.368 80.0249 545.565 79.7763 545.806 79.545C546.047 79.3135 546.244 79.0535 546.244 78.967C546.244 78.8805 546.354 78.7015 546.488 78.5692C546.622 78.437 546.731 78.2913 546.731 78.2456C546.731 78.1998 546.928 77.9767 547.169 77.7498C547.41 77.5229 547.608 77.2573 547.608 77.1596C547.608 77.0618 547.706 76.8761 547.827 76.7469C547.947 76.6176 548.144 76.4046 548.265 76.2737C548.385 76.1427 548.484 75.9505 548.484 75.8466C548.484 75.7428 548.593 75.5726 548.727 75.4686C548.877 75.3521 548.971 75.1818 548.971 75.0252C548.971 74.8855 549.069 74.662 549.19 74.5286C549.31 74.3952 549.507 74.1784 549.628 74.0467C549.748 73.915 549.847 73.7207 549.847 73.6148C549.847 73.509 549.956 73.3142 550.09 73.1819C550.224 73.0496 550.334 72.8447 550.334 72.7265C550.334 72.6084 550.421 72.4493 550.528 72.373C550.655 72.2828 550.723 72.1239 550.723 71.9188C550.723 71.7453 550.773 71.6034 550.834 71.6034C550.999 71.6034 551.203 71.2977 551.207 71.0462C551.208 70.9249 551.293 70.7372 551.395 70.629C551.497 70.5208 551.607 70.294 551.639 70.1248C551.671 69.9557 551.785 69.7551 551.892 69.679C552.028 69.5817 552.086 69.43 552.086 69.1679C552.086 68.8092 552.338 68.2363 552.496 68.2363C552.538 68.2363 552.573 68.1006 552.573 67.9349C552.573 67.7628 552.65 67.5668 552.752 67.4779C552.856 67.3872 552.959 67.1218 552.997 66.8414C553.033 66.5768 553.105 66.3459 553.158 66.3283C553.211 66.3106 553.254 66.2349 553.254 66.16C553.254 66.0849 553.298 66.0237 553.352 66.0237C553.406 66.0237 553.449 65.7671 553.449 65.4465C553.449 65.1258 553.492 64.8692 553.546 64.8692C553.6 64.8692 553.644 64.7579 553.644 64.6219C553.644 64.4858 553.709 64.3095 553.79 64.2302C553.88 64.141 553.936 63.9049 553.936 63.6118C553.936 63.351 553.98 63.1376 554.033 63.1376C554.087 63.1376 554.131 62.881 554.131 62.5604C554.131 62.243 554.168 61.9832 554.214 61.9832C554.41 61.9832 554.468 60.7178 554.464 56.4997C554.461 52.2523 554.408 51.1124 554.215 51.1124C554.169 51.1124 554.131 49.8137 554.131 48.2264C554.131 46.3665 554.096 45.3403 554.033 45.3403C553.98 45.3403 553.934 45.1564 553.933 44.9315C553.931 44.7066 553.865 44.4386 553.787 44.3359C553.676 44.1919 553.644 43.834 553.644 42.7726C553.644 41.919 553.607 41.3961 553.546 41.3961C553.493 41.3961 553.449 41.1832 553.449 40.923C553.449 40.6629 553.406 40.4357 553.353 40.418C553.257 40.386 553.104 39.7847 552.995 39.0129C552.963 38.7868 552.898 38.5786 552.852 38.5503C552.806 38.5219 552.768 38.1333 552.768 37.6866C552.768 37.2094 552.727 36.8746 552.67 36.8746C552.617 36.8746 552.571 36.6907 552.57 36.4657C552.568 36.2408 552.502 35.9728 552.424 35.8702C552.345 35.7674 552.281 35.5643 552.281 35.4189C552.281 35.2733 552.237 35.1276 552.183 35.0949C552.13 35.0622 552.086 34.8432 552.086 34.6082C552.086 34.3731 552.042 34.181 551.989 34.181C551.935 34.181 551.891 34.0944 551.891 33.9886C551.891 33.8827 551.847 33.7962 551.794 33.7962C551.74 33.7962 551.697 33.6671 551.697 33.5095C551.697 33.1748 551.423 32.4493 551.297 32.4493C551.249 32.4493 551.21 32.2329 551.21 31.9683C551.21 31.7038 551.171 31.4873 551.123 31.4873C550.997 31.4873 550.723 30.7619 550.723 30.4272C550.723 30.2695 550.679 30.1405 550.626 30.1405C550.572 30.1405 550.528 30.0539 550.528 29.9481C550.528 29.8423 550.484 29.7557 550.431 29.7557C550.377 29.7557 550.334 29.5641 550.334 29.3298C550.334 28.99 550.284 28.8655 550.09 28.7147C549.94 28.5978 549.847 28.4279 549.847 28.2704C549.847 28.1266 549.741 27.9104 549.603 27.7748C549.469 27.6425 549.36 27.4281 549.36 27.2982C549.36 27.1684 549.316 27.062 549.263 27.062C549.209 27.062 549.165 26.9538 549.165 26.8215C549.165 26.6893 549.121 26.581 549.068 26.581C549.014 26.581 548.971 26.4048 548.971 26.1894C548.971 25.8115 548.805 25.5228 548.588 25.5228C548.531 25.5228 548.484 25.3895 548.484 25.2266C548.484 25.0038 548.375 24.8232 548.046 24.4975C547.744 24.1995 547.608 23.9842 547.608 23.8064C547.608 23.6433 547.518 23.4817 547.364 23.3676C547.223 23.2628 547.121 23.0902 547.121 22.956C547.121 22.8289 547.033 22.632 546.926 22.5185C546.819 22.4048 546.731 22.2366 546.731 22.1445C546.731 22.0525 546.666 21.9122 546.585 21.8328C546.505 21.7534 546.439 21.6624 546.439 21.6303C546.439 21.5983 546.286 21.4206 546.098 21.2354C545.911 21.0502 545.758 20.8097 545.758 20.7009C545.758 20.5922 545.561 20.3139 545.32 20.0824C545.079 19.8511 544.881 19.6364 544.881 19.6057C544.881 19.5748 544.772 19.4413 544.638 19.3091C544.504 19.1768 544.395 18.9851 544.395 18.8831C544.395 18.6653 538.524 12.8242 538.305 12.8242C538.227 12.8242 538.164 12.7809 538.164 12.728C538.164 12.6751 538.054 12.6318 537.92 12.6318C537.786 12.6318 537.677 12.5854 537.677 12.5288C537.677 12.3955 537.429 12.1508 537.294 12.1508C537.237 12.1508 537.19 12.1122 537.19 12.0651C537.19 12.0179 537.006 11.9066 536.782 11.818C536.557 11.7292 536.3 11.5729 536.211 11.4708C536.121 11.3686 535.998 11.285 535.937 11.285C535.877 11.285 535.827 11.2483 535.827 11.2034C535.827 11.1585 535.641 11.0407 535.413 10.9417C535.186 10.8427 534.929 10.6845 534.842 10.5903C534.755 10.4962 534.593 10.4192 534.481 10.4192C534.37 10.4192 534.169 10.311 534.035 10.1787C533.891 10.0365 533.68 9.93817 533.518 9.93817C533.351 9.93817 533.198 9.86389 533.124 9.74576C533.056 9.63947 532.897 9.55338 532.766 9.55338C532.637 9.55338 532.465 9.48843 532.385 9.40909C532.304 9.32971 532.192 9.26474 532.134 9.26474C532.077 9.26474 532.03 9.22147 532.03 9.16858C532.03 9.11566 531.905 9.07236 531.752 9.07236C531.568 9.07236 531.411 8.9902 531.29 8.83185C531.169 8.67224 531.013 8.59134 530.826 8.59134C530.671 8.59134 530.473 8.51093 530.386 8.41272C530.287 8.30026 530.028 8.20944 529.687 8.16748C529.316 8.12189 529.102 8.04184 529.009 7.91324C528.909 7.77692 528.756 7.72552 528.451 7.72552C528.182 7.72552 527.935 7.65561 527.764 7.53122C527.618 7.42432 527.269 7.31006 526.989 7.27725C526.71 7.24454 526.481 7.18048 526.481 7.13495C526.481 7.08936 526.415 7.05212 526.335 7.05212C526.254 7.05212 526.189 7.01352 526.189 6.96631C526.189 6.91907 525.754 6.84973 525.223 6.81223C524.474 6.75931 524.212 6.70273 524.058 6.56131C523.887 6.40363 523.705 6.37872 522.723 6.37872C521.793 6.37872 521.565 6.35062 521.472 6.22488C521.274 5.95764 520.58 5.90607 517.183 5.90607C513.785 5.90607 513.092 5.95764 512.894 6.22488C512.798 6.35526 512.533 6.37872 511.16 6.37872C510.145 6.37872 509.54 6.41461 509.54 6.47491C509.54 6.52783 509.474 6.57111 509.394 6.57111C509.314 6.57111 509.248 6.60922 509.248 6.65588C509.248 6.70245 508.795 6.77103 508.241 6.80835C507.41 6.86435 507.211 6.90829 507.1 7.0603C507.002 7.1944 506.846 7.24509 506.525 7.24683C505.932 7.24991 505.396 7.38113 505.205 7.57019C505.107 7.66687 504.883 7.72552 504.612 7.72552C504.32 7.72552 504.112 7.78528 503.98 7.90726C503.843 8.03348 503.565 8.10919 503.069 8.155C502.569 8.20135 502.297 8.27609 502.155 8.40616C502.016 8.53421 501.814 8.59134 501.499 8.59134C501.138 8.59134 500.997 8.64139 500.818 8.83185C500.685 8.97318 500.485 9.07236 500.331 9.07236C500.188 9.07236 499.999 9.15344 499.912 9.25253C499.816 9.3623 499.551 9.46033 499.233 9.50354C498.931 9.54453 498.635 9.65082 498.528 9.75626C498.427 9.85629 498.232 9.93817 498.096 9.93817C497.96 9.93817 497.739 10.0464 497.605 10.1787C497.417 10.364 497.261 10.4192 496.923 10.4192C496.586 10.4192 496.429 10.4744 496.242 10.6597C496.108 10.792 495.916 10.9002 495.816 10.9002C495.53 10.9002 495.326 11.0047 495.326 11.151C495.326 11.2383 495.214 11.285 495.006 11.285C494.799 11.285 494.638 11.3524 494.547 11.4769C494.47 11.5826 494.267 11.6949 494.096 11.7267C493.925 11.7583 493.692 11.8694 493.579 11.9734C493.466 12.0774 493.212 12.2295 493.013 12.3114C492.815 12.3932 492.581 12.5421 492.493 12.6422C492.405 12.7423 492.303 12.8242 492.265 12.8242C492.227 12.8242 492.131 12.8891 492.05 12.9685C491.97 13.0479 491.798 13.1128 491.669 13.1128C491.538 13.1128 491.379 13.1989 491.311 13.3052C491.237 13.4234 491.084 13.4977 490.917 13.4977C490.755 13.4977 490.544 13.5959 490.4 13.7382C490.266 13.8704 490.093 13.9786 490.015 13.9786C489.937 13.9786 489.874 14.0219 489.874 14.0748C489.874 14.1277 489.786 14.1711 489.679 14.1711C489.572 14.1711 489.484 14.207 489.484 14.251C489.484 14.295 489.375 14.3888 489.241 14.4597C489.107 14.5305 488.997 14.646 488.997 14.7164C488.997 14.7958 488.881 14.8445 488.692 14.8445C488.512 14.8445 488.321 14.9204 488.224 15.0302C488.135 15.1324 487.878 15.2886 487.653 15.3774C487.429 15.4661 487.245 15.5773 487.245 15.6245C487.245 15.6717 487.198 15.7103 487.141 15.7103C487.006 15.7103 486.758 15.955 486.758 16.0883C486.758 16.1449 486.649 16.1913 486.515 16.1913C486.381 16.1913 486.271 16.2346 486.271 16.2875C486.271 16.3404 486.184 16.3837 486.077 16.3837C485.969 16.3837 485.882 16.4196 485.882 16.4636C485.882 16.5076 485.772 16.6015 485.638 16.6723C485.505 16.7431 485.395 16.8586 485.395 16.929C485.395 16.9995 485.31 17.0571 485.206 17.0571C485.102 17.0571 484.99 17.1004 484.957 17.1533C484.924 17.2062 484.812 17.2495 484.708 17.2495C484.604 17.2495 484.519 17.3144 484.519 17.3938C484.519 17.4731 484.469 17.5381 484.409 17.5381C484.348 17.5381 484.225 17.6217 484.135 17.7238C484.046 17.826 483.788 17.9823 483.564 18.071C483.34 18.1598 483.156 18.2709 483.156 18.3182C483.156 18.3653 483.106 18.4039 483.046 18.4039C482.985 18.4039 482.864 18.4838 482.778 18.5814C482.691 18.679 482.445 18.8396 482.231 18.9383C482.017 19.0369 481.7 19.2601 481.527 19.4342C481.354 19.6082 481.124 19.7507 481.016 19.7507C480.908 19.7507 480.819 19.794 480.819 19.8469C480.819 19.8998 480.732 19.9431 480.624 19.9431C480.517 19.9431 480.43 19.9883 480.43 20.0437C480.43 20.151 479.993 20.6165 479.892 20.6165C479.793 20.6165 479.554 20.8838 479.554 20.9945C479.554 21.0512 479.444 21.0975 479.31 21.0975C479.176 21.0975 479.067 21.1408 479.067 21.1938C479.067 21.2467 478.979 21.2899 478.872 21.2899C478.765 21.2899 478.677 21.3259 478.677 21.3699C478.677 21.4138 478.568 21.5078 478.434 21.5786C478.3 21.6494 478.191 21.7649 478.191 21.8353C478.191 21.9078 478.085 21.9634 477.947 21.9634C477.813 21.9634 477.704 22.0067 477.704 22.0596C477.704 22.1125 477.616 22.1558 477.509 22.1558C477.401 22.1558 477.314 22.2199 477.314 22.3001C477.314 22.3795 477.275 22.4444 477.227 22.4444C477.113 22.4444 476.438 23.1109 476.438 23.2236C476.438 23.2712 476.388 23.3102 476.328 23.3102C476.267 23.3102 476.146 23.3921 476.058 23.4922C475.97 23.5923 475.732 23.7426 475.53 23.8263C475.327 23.9099 475.011 24.1311 474.828 24.3177C474.644 24.5043 474.466 24.657 474.431 24.657C474.396 24.657 474.296 24.7389 474.208 24.8391C474.12 24.9392 473.89 25.0863 473.697 25.1659C473.504 25.2457 472.987 25.6616 472.548 26.0902C472.107 26.521 471.666 26.8696 471.562 26.8696C471.459 26.8696 471.375 26.9129 471.375 26.9659C471.375 27.0187 471.288 27.062 471.181 27.062C471.074 27.062 470.986 27.1072 470.986 27.1626C470.986 27.2932 470.538 27.7354 470.406 27.7354C470.35 27.7354 470.304 27.7807 470.304 27.836C470.304 27.9666 469.857 28.4088 469.725 28.4088C469.669 28.4088 469.623 28.4541 469.623 28.5094C469.623 28.6152 469.186 29.0823 469.087 29.0823C469.056 29.0823 468.92 29.1905 468.787 29.3228C468.653 29.4551 468.479 29.5633 468.402 29.5633C468.324 29.5633 468.26 29.6066 468.26 29.6595C468.26 29.7124 468.194 29.7557 468.113 29.7557C468.032 29.7557 467.157 30.5566 466.168 31.5354C465.179 32.5143 464.326 33.3152 464.271 33.3152C464.216 33.3152 464.171 33.3519 464.171 33.3967C464.171 33.4417 463.994 33.557 463.779 33.6531C463.394 33.8246 460.666 36.398 460.666 36.5897C460.666 36.6406 460.619 36.6822 460.561 36.6822C460.503 36.6822 460.259 36.877 460.018 37.1151C459.777 37.3532 459.495 37.548 459.393 37.548C459.29 37.548 459.205 37.5913 459.205 37.6442C459.205 37.6971 459.118 37.7404 459.011 37.7404C458.904 37.7404 458.816 37.7837 458.816 37.8366C458.816 37.9621 457.677 39.0872 457.55 39.0872C457.497 39.0872 457.453 39.1324 457.453 39.1878C457.453 39.2951 457.016 39.7607 456.915 39.7607C456.836 39.7607 456.577 40.0184 456.577 40.0974C456.577 40.1763 456.318 40.4341 456.239 40.4341C456.138 40.4341 455.701 40.8996 455.701 41.0069C455.701 41.0623 455.591 41.1075 455.457 41.1075C455.323 41.1075 455.214 41.1508 455.214 41.2037C455.214 41.2566 455.149 41.2999 455.07 41.2999C454.991 41.2999 454.16 42.0575 453.225 42.9834C452.289 43.9093 451.498 44.6669 451.466 44.6669C451.434 44.6669 451.298 44.7752 451.165 44.9074C451.031 45.0397 450.836 45.1479 450.731 45.1479C450.626 45.1479 450.541 45.1912 450.541 45.2441C450.541 45.297 450.491 45.3403 450.43 45.3403C450.314 45.3403 449.859 45.8186 449.859 45.9416C449.859 45.9812 449.812 46.0137 449.755 46.0137C449.641 46.0137 449.372 46.2506 449.372 46.3504C449.372 46.4307 449.113 46.6872 449.031 46.6872C448.95 46.6872 448.691 46.9436 448.691 47.0238C448.691 47.1041 448.431 47.3606 448.35 47.3606C448.269 47.3606 448.009 47.6171 448.009 47.6973C448.009 47.7756 447.751 48.034 447.672 48.034C447.64 48.034 447.46 48.1855 447.272 48.3707C447.085 48.5559 446.843 48.7074 446.734 48.7074C446.607 48.7074 445.944 49.2956 444.891 50.3428C443.986 51.2423 443.2 51.9782 443.145 51.9782C443.089 51.9782 443.044 52.0432 443.044 52.1225C443.044 52.2019 442.998 52.2668 442.942 52.2668C442.886 52.2668 442.731 52.3751 442.597 52.5073C442.463 52.6396 442.271 52.7478 442.17 52.7478C442.063 52.7478 441.263 53.4615 440.235 54.4758C439.106 55.5887 438.385 56.2278 438.208 56.271C438.056 56.3079 437.862 56.4178 437.775 56.5151C437.688 56.6125 437.587 56.6921 437.549 56.6921C437.465 56.6921 437.202 56.9449 437.202 57.0263C437.202 57.1259 436.731 57.5579 436.623 57.5579C436.567 57.5579 436.521 57.6043 436.521 57.661C436.521 57.7731 436.281 58.039 436.18 58.039C436.1 58.039 435.839 58.2948 435.839 58.3732C435.839 58.4504 435.379 58.9047 435.301 58.9047C435.202 58.9047 434.963 59.172 434.963 59.2827C434.963 59.3394 434.917 59.3858 434.861 59.3858C434.805 59.3858 434.65 59.494 434.516 59.6263C434.382 59.7585 434.188 59.8668 434.084 59.8668C433.97 59.8668 433.275 60.478 432.334 61.406C431.476 62.2526 430.75 62.9452 430.722 62.9452C430.694 62.9452 430.561 63.0535 430.427 63.1857C430.293 63.318 430.101 63.4262 429.999 63.4262C429.89 63.4262 429.105 64.1297 428.072 65.1521C426.914 66.2993 426.235 66.9012 426.046 66.9472C425.89 66.9853 425.692 67.0961 425.605 67.1935C425.519 67.2908 425.417 67.3705 425.379 67.3705C425.295 67.3705 425.032 67.6233 425.032 67.7047C425.032 67.8043 424.561 68.2363 424.453 68.2363C424.397 68.2363 424.351 68.2827 424.351 68.3394C424.351 68.4515 424.111 68.7173 424.01 68.7173C423.93 68.7173 423.669 68.9731 423.669 69.0515C423.669 69.1288 423.21 69.5831 423.131 69.5831C423.052 69.5831 422.793 69.8409 422.793 69.9198C422.793 70.0039 422.532 70.2565 422.445 70.2565C422.406 70.2565 422.226 70.4081 422.044 70.5932C421.862 70.7784 421.625 70.9299 421.517 70.9299C421.396 70.9299 420.811 71.4372 419.966 72.2768C419.221 73.0175 418.586 73.6236 418.556 73.6236C418.525 73.6236 418.391 73.7318 418.257 73.8641C418.123 73.9964 417.928 74.1046 417.824 74.1046C417.719 74.1046 417.633 74.1479 417.633 74.2008C417.633 74.2537 417.587 74.297 417.531 74.297C417.399 74.297 416.952 74.7393 416.952 74.8699C416.952 74.9252 416.903 74.9704 416.843 74.9704C416.723 74.9704 416.075 75.6357 416.075 75.7588C416.075 75.8014 416.029 75.8362 415.971 75.8362C415.836 75.8362 415.589 76.081 415.589 76.2142C415.589 76.2709 415.55 76.3172 415.503 76.3172C415.455 76.3172 415.02 76.6989 414.536 77.1653C413.937 77.7418 413.528 78.0549 413.259 78.1429C413.041 78.214 412.863 78.3115 412.863 78.3597C412.863 78.4804 412.607 78.7223 412.48 78.7223C412.423 78.7223 412.376 78.767 412.376 78.8217C412.376 78.8764 412.224 79.0712 412.038 79.2545C411.853 79.438 411.656 79.5881 411.6 79.5881C411.545 79.5881 411.5 79.6314 411.5 79.6843C411.5 79.7372 411.237 80.0402 410.915 80.3577C410.594 80.6752 410.287 80.9349 410.234 80.9349C410.18 80.9349 410.137 80.9801 410.137 81.0354C410.137 81.1413 409.7 81.6083 409.601 81.6083C409.569 81.6083 409.434 81.7165 409.3 81.8488C409.166 81.9811 408.971 82.0893 408.866 82.0893C408.762 82.0893 408.676 82.1326 408.676 82.1855C408.676 82.2384 408.635 82.2817 408.584 82.2817C408.534 82.2817 407.832 82.9311 407.024 83.7247C406.217 84.5184 405.533 85.1678 405.505 85.1678C405.477 85.1678 405.345 85.276 405.211 85.4083C405.077 85.5406 404.882 85.6488 404.777 85.6488C404.673 85.6488 404.587 85.6921 404.587 85.745C404.587 85.7979 404.521 85.8412 404.441 85.8412C404.361 85.8412 404.295 85.8826 404.295 85.9331C404.295 86.0285 403.838 86.5146 403.748 86.5146C403.656 86.5146 403.419 86.7869 403.419 86.8926C403.419 86.9492 403.37 86.9956 403.31 86.9956C403.19 86.9956 402.543 87.6608 402.543 87.784C402.543 87.8266 402.496 87.8614 402.438 87.8614C402.303 87.8614 402.056 88.1061 402.056 88.2394C402.056 88.2961 402.021 88.3424 401.979 88.3424C401.936 88.3424 401.684 88.537 401.419 88.775C401.153 89.0128 400.858 89.2076 400.762 89.2079C400.666 89.2081 400.396 89.403 400.162 89.6411C399.928 89.8792 399.689 90.0741 399.63 90.0741C399.572 90.0741 399.524 90.1133 399.524 90.1613C399.524 90.2566 397.52 92.2867 397.426 92.2867C397.329 92.2867 397.09 92.5552 397.09 92.6647C397.09 92.7213 397.045 92.7677 396.989 92.7677C396.933 92.7677 396.777 92.8759 396.643 93.0082C396.51 93.1405 396.319 93.2487 396.22 93.2487C396.117 93.2487 395.262 94.0088 394.22 95.0284C392.973 96.2473 392.332 96.8082 392.186 96.8082C392.069 96.8082 391.91 96.8947 391.833 97.0006C391.756 97.1064 391.655 97.193 391.61 97.193C391.513 97.193 391.249 97.4394 391.249 97.5297C391.249 97.6099 390.989 97.8664 390.908 97.8664C390.827 97.8664 390.567 98.1228 390.567 98.2031C390.567 98.2833 390.308 98.5398 390.227 98.5398C390.145 98.5398 389.886 98.7962 389.886 98.8765C389.886 98.9555 389.627 99.2132 389.548 99.2132C389.447 99.2132 389.01 99.6787 389.01 99.7861C389.01 99.8414 388.962 99.8866 388.905 99.8866C388.847 99.8866 388.608 100.076 388.373 100.308C388.138 100.54 387.831 100.758 387.69 100.793C387.537 100.831 386.731 101.553 385.69 102.584C384.731 103.534 383.923 104.312 383.894 104.312C383.864 104.312 383.731 104.42 383.597 104.552C383.463 104.685 383.268 104.793 383.164 104.793C383.059 104.793 382.973 104.836 382.973 104.889C382.973 104.942 382.93 104.985 382.877 104.985C382.75 104.985 381.805 105.917 381.805 106.042C381.805 106.096 381.765 106.14 381.715 106.14C381.666 106.14 380.985 106.767 380.204 107.535C379.422 108.302 378.739 108.93 378.687 108.93C378.635 108.93 378.592 108.994 378.592 109.074C378.592 109.17 378.495 109.218 378.3 109.218C378.139 109.218 378.008 109.261 378.008 109.314C378.008 109.367 377.942 109.411 377.862 109.411C377.782 109.411 377.716 109.457 377.716 109.514C377.716 109.626 377.476 109.892 377.375 109.892C377.294 109.892 377.034 110.148 377.034 110.228C377.034 110.309 376.775 110.565 376.694 110.565C376.614 110.565 376.353 110.821 376.353 110.899C376.353 110.976 375.893 111.431 375.815 111.431C375.736 111.431 375.477 111.689 375.477 111.767C375.477 111.848 375.217 112.104 375.136 112.104C375.055 112.104 374.795 112.361 374.795 112.441C374.795 112.52 374.536 112.778 374.457 112.778C374.424 112.778 374.287 112.886 374.154 113.018C374.02 113.15 373.825 113.259 373.72 113.259C373.602 113.259 372.679 114.098 371.286 115.471C370.052 116.688 369.02 117.684 368.993 117.684C368.967 117.684 368.835 117.792 368.701 117.924C368.568 118.057 368.372 118.165 368.268 118.165C368.163 118.165 368.077 118.208 368.077 118.261C368.077 118.314 368.032 118.357 367.976 118.357C367.843 118.357 367.396 118.8 367.396 118.93C367.396 118.986 367.349 119.031 367.292 119.031C367.157 119.031 366.909 119.275 366.909 119.409C366.909 119.465 366.874 119.512 366.831 119.512C366.706 119.512 366.033 120.152 366.033 120.27C366.033 120.329 365.984 120.378 365.924 120.378C365.804 120.378 365.157 121.043 365.157 121.166C365.157 121.209 365.112 121.243 365.057 121.243C365.002 121.243 364.762 121.436 364.523 121.672C364.271 121.921 363.926 122.149 363.698 122.216C363.483 122.28 363.307 122.37 363.307 122.417C363.307 122.526 362.142 123.648 362.029 123.648C361.982 123.648 361.944 123.695 361.944 123.751C361.944 123.885 361.696 124.129 361.561 124.129C361.504 124.129 361.457 124.162 361.457 124.202C361.457 124.299 361.014 124.803 360.928 124.803C360.846 124.803 360.581 125.055 360.581 125.133C360.581 125.229 359.416 126.342 359.315 126.342C359.262 126.342 359.218 126.387 359.218 126.443C359.218 126.548 358.781 127.015 358.682 127.015C358.651 127.015 358.515 127.124 358.381 127.256C358.247 127.388 358.053 127.496 357.949 127.496C357.832 127.496 356.954 128.292 355.663 129.565C354.51 130.702 353.524 131.633 353.471 131.633C353.419 131.633 353.376 131.698 353.376 131.777C353.376 131.874 353.278 131.922 353.077 131.922C352.779 131.922 352.5 132.104 352.5 132.3C352.5 132.356 352.451 132.403 352.391 132.403C352.271 132.403 351.624 133.068 351.624 133.191C351.624 133.234 351.577 133.269 351.519 133.269C351.385 133.269 351.137 133.513 351.137 133.647C351.137 133.703 351.102 133.75 351.059 133.75C350.934 133.75 350.261 134.39 350.261 134.508C350.261 134.567 350.214 134.615 350.156 134.615C350.05 134.615 349.774 134.85 349.774 134.941C349.774 135.007 349.294 135.481 349.227 135.481C349.135 135.481 348.898 135.754 348.898 135.859C348.898 135.916 348.849 135.962 348.789 135.962C348.669 135.962 348.021 136.627 348.021 136.751C348.021 136.793 347.976 136.828 347.92 136.828C347.864 136.828 347.708 136.936 347.574 137.068C347.441 137.201 347.243 137.309 347.136 137.309C347.011 137.309 346.183 138.057 344.847 139.377C343.696 140.515 342.713 141.446 342.662 141.446C342.611 141.446 342.569 141.492 342.569 141.549C342.569 141.682 342.322 141.927 342.187 141.927C342.13 141.927 342.083 141.972 342.083 142.027C342.083 142.148 341.639 142.6 341.52 142.6C341.474 142.6 341.341 142.708 341.225 142.841C341.108 142.973 340.926 143.081 340.821 143.081C340.698 143.081 339.566 144.13 337.706 145.967C336.099 147.554 334.723 148.853 334.648 148.853C334.573 148.853 334.489 148.938 334.461 149.041C334.433 149.147 334.29 149.259 334.134 149.297C333.981 149.334 333.785 149.445 333.698 149.542C333.612 149.639 333.51 149.719 333.472 149.719C333.366 149.719 333.126 149.982 333.126 150.097C333.126 150.154 333.08 150.2 333.024 150.2C332.915 150.2 332.444 150.632 332.444 150.732C332.444 150.81 332.183 151.066 332.103 151.066C332.022 151.066 331.763 151.322 331.763 151.403C331.763 151.483 331.503 151.739 331.422 151.739C331.341 151.739 331.081 151.996 331.081 152.076C331.081 152.156 330.821 152.413 330.74 152.413C330.66 152.413 330.399 152.668 330.399 152.747C330.399 152.824 329.94 153.278 329.861 153.278C329.762 153.278 329.523 153.546 329.523 153.656C329.523 153.713 329.477 153.759 329.422 153.759C329.313 153.759 328.842 154.192 328.842 154.291C328.842 154.369 328.581 154.625 328.501 154.625C328.42 154.625 328.16 154.882 328.16 154.962C328.16 155.041 327.901 155.299 327.822 155.299C327.721 155.299 327.284 155.764 327.284 155.872C327.284 155.927 327.237 155.972 327.18 155.972C327.045 155.972 326.797 156.217 326.797 156.35C326.797 156.407 326.762 156.453 326.719 156.453C326.594 156.453 325.921 157.093 325.921 157.212C325.921 157.271 325.833 157.319 325.726 157.319C325.619 157.319 325.532 157.359 325.532 157.408C325.532 157.564 325.233 157.8 325.035 157.8C324.915 157.8 323.453 159.174 321.044 161.552C318.954 163.615 317.211 165.304 317.17 165.304C317.13 165.304 317.001 165.412 316.885 165.544C316.768 165.676 316.587 165.785 316.482 165.785C316.36 165.785 314.285 167.767 310.7 171.307C307.625 174.344 305.016 176.878 304.903 176.938C304.789 176.998 304.697 177.11 304.697 177.188C304.697 177.277 304.598 177.33 304.429 177.332C304.168 177.335 303.82 177.522 303.82 177.659C303.82 177.764 303.555 178.002 303.438 178.002C303.381 178.002 303.334 178.035 303.334 178.074C303.333 178.172 302.89 178.676 302.804 178.676C302.72 178.676 302.457 178.928 302.457 179.01C302.457 179.087 301.998 179.541 301.919 179.541C301.82 179.541 301.581 179.809 301.581 179.919C301.581 179.976 301.535 180.022 301.479 180.022C301.424 180.022 301.268 180.131 301.134 180.263C301 180.395 300.852 180.503 300.804 180.503C300.757 180.503 300.69 180.59 300.656 180.696C300.616 180.822 300.509 180.888 300.346 180.888C300.18 180.888 299.963 181.026 299.695 181.302C299.474 181.53 299.212 181.746 299.114 181.784C299.015 181.821 298.911 181.938 298.883 182.043C298.847 182.18 298.75 182.235 298.545 182.235C298.256 182.235 297.979 182.42 297.979 182.613C297.979 182.67 297.934 182.716 297.878 182.716C297.776 182.716 297.461 182.973 297.082 183.365C296.947 183.505 296.758 183.582 296.55 183.582C296.372 183.582 296.226 183.622 296.226 183.671C296.226 183.835 295.923 184.063 295.705 184.063C295.587 184.063 295.427 184.15 295.35 184.255C295.273 184.361 295.162 184.448 295.103 184.448C295.044 184.448 294.901 184.556 294.784 184.688C294.648 184.843 294.47 184.929 294.286 184.929C294.091 184.929 293.982 184.987 293.942 185.111C293.901 185.238 293.754 185.312 293.449 185.357C293.106 185.408 293.014 185.461 293.014 185.608C293.014 185.765 292.944 185.795 292.576 185.795C292.256 185.795 292.137 185.833 292.137 185.936C292.137 186.113 291.837 186.276 291.511 186.276C291.374 186.276 291.261 186.319 291.261 186.372C291.261 186.425 291.195 186.468 291.115 186.468C291.035 186.468 290.969 186.511 290.969 186.564C290.969 186.617 290.79 186.66 290.57 186.66C290.19 186.66 289.606 186.906 289.606 187.066C289.606 187.107 289.385 187.141 289.115 187.141C288.759 187.141 288.567 187.194 288.415 187.334C288.215 187.518 288.072 187.526 284.884 187.526C281.697 187.526 281.553 187.518 281.353 187.334C281.201 187.194 281.009 187.141 280.653 187.141C280.383 187.141 280.162 187.107 280.162 187.066C280.162 186.937 279.609 186.66 279.351 186.66C279.19 186.66 279.083 186.594 279.043 186.468C278.996 186.324 278.895 186.276 278.643 186.276C278.251 186.276 277.631 186.043 277.631 185.896C277.631 185.84 277.459 185.795 277.248 185.795C276.954 185.795 276.851 185.751 276.805 185.607C276.772 185.504 276.659 185.393 276.555 185.36C276.451 185.327 276.365 185.26 276.365 185.211C276.365 185.162 276.299 185.121 276.219 185.121C276.139 185.121 276.073 185.078 276.073 185.025C276.073 184.972 275.992 184.929 275.893 184.929C275.793 184.929 275.594 184.821 275.45 184.688C275.296 184.547 275.071 184.448 274.906 184.448C274.714 184.448 274.607 184.389 274.566 184.26C274.533 184.157 274.42 184.046 274.316 184.013C274.211 183.981 274.126 183.913 274.126 183.864C274.126 183.815 274.06 183.774 273.98 183.774C273.9 183.774 273.834 183.731 273.834 183.678C273.834 183.625 273.732 183.582 273.608 183.582C273.484 183.582 273.293 183.484 273.184 183.365C272.892 183.046 272.483 182.774 272.173 182.691C272.022 182.651 271.871 182.532 271.838 182.426C271.804 182.321 271.713 182.235 271.636 182.235C271.559 182.235 271.19 181.932 270.816 181.562C270.345 181.096 270.062 180.888 269.898 180.888C269.748 180.888 269.638 180.819 269.6 180.701C269.567 180.598 269.455 180.487 269.35 180.454C269.246 180.421 269.161 180.354 269.161 180.305C269.161 180.255 269.114 180.215 269.056 180.215C268.943 180.215 268.674 179.978 268.674 179.878C268.674 179.799 268.415 179.541 268.336 179.541C268.257 179.541 267.798 179.087 267.798 179.01C267.798 178.936 267.539 178.676 267.465 178.676C267.367 178.676 266.435 177.719 266.435 177.619C266.435 177.565 266.369 177.521 266.289 177.521C266.208 177.521 266.143 177.478 266.143 177.425C266.143 177.372 266.014 177.329 265.857 177.329C265.657 177.329 265.553 177.271 265.51 177.136C265.476 177.031 265.409 176.944 265.362 176.944C265.314 176.944 265.166 176.836 265.032 176.704C264.898 176.571 264.742 176.463 264.687 176.463C264.631 176.463 264.585 176.415 264.585 176.356C264.585 176.237 263.912 175.597 263.787 175.597C263.744 175.597 263.709 175.551 263.709 175.494C263.709 175.361 263.461 175.116 263.326 175.116C263.269 175.116 263.222 175.081 263.222 175.039C263.222 174.916 262.574 174.25 262.454 174.25C262.394 174.25 262.346 174.209 262.346 174.159C262.346 174.039 256.914 168.671 256.792 168.671C256.741 168.671 256.699 168.633 256.699 168.587C256.699 168.54 256.571 168.477 256.414 168.446C256.246 168.413 256.105 168.31 256.067 168.194C256.032 168.086 255.942 167.997 255.866 167.997C255.791 167.997 253.604 165.898 251.007 163.332C248.41 160.765 246.222 158.666 246.145 158.666C245.902 158.666 245.697 158.554 245.697 158.421C245.697 158.351 245.601 158.264 245.483 158.227C245.262 158.158 245.016 157.958 245.016 157.848C245.016 157.768 244.756 157.511 244.675 157.511C244.594 157.511 244.334 157.255 244.334 157.175C244.334 157.096 244.075 156.838 243.996 156.838C243.918 156.838 243.458 156.384 243.458 156.306C243.458 156.225 243.196 155.972 243.111 155.972C243.025 155.972 242.582 155.469 242.582 155.371C242.582 155.331 242.535 155.299 242.477 155.299C242.364 155.299 242.095 155.062 242.095 154.962C242.095 154.882 241.835 154.625 241.754 154.625C241.673 154.625 241.413 154.369 241.413 154.289C241.413 154.208 241.154 153.952 241.073 153.952C240.991 153.952 240.732 153.695 240.732 153.615C240.732 153.536 240.473 153.278 240.394 153.278C240.315 153.278 239.856 152.824 239.856 152.747C239.856 152.668 239.595 152.413 239.515 152.413C239.434 152.413 239.174 152.156 239.174 152.076C239.174 151.996 238.915 151.739 238.833 151.739C238.752 151.739 238.493 151.483 238.493 151.403C238.493 151.322 238.233 151.066 238.152 151.066C238.071 151.066 237.811 150.809 237.811 150.729C237.811 150.629 237.542 150.392 237.429 150.392C237.371 150.392 237.324 150.349 237.324 150.296C237.324 150.243 237.227 150.2 237.109 150.2C236.99 150.2 236.804 150.116 236.695 150.014C236.586 149.911 235.065 148.424 233.315 146.708C230.953 144.392 230.059 143.574 229.843 143.531C229.667 143.497 229.526 143.396 229.488 143.277C229.453 143.169 229.341 143.081 229.237 143.081C229.133 143.081 229.049 143.016 229.049 142.937C229.049 142.857 229.007 142.792 228.956 142.792C228.906 142.792 227.11 141.061 224.966 138.944C222.419 136.431 220.999 135.096 220.872 135.096C220.762 135.096 220.418 134.842 220.092 134.519C219.77 134.202 219.483 133.942 219.452 133.942C219.376 133.942 219.118 133.682 219.118 133.605C219.118 133.525 218.859 133.269 218.777 133.269C218.696 133.269 218.437 133.012 218.437 132.932C218.437 132.852 218.177 132.595 218.096 132.595C218.015 132.595 217.755 132.339 217.755 132.258C217.755 132.178 217.496 131.922 217.414 131.922C217.334 131.922 217.074 131.666 217.074 131.587C217.074 131.488 216.602 131.056 216.494 131.056C216.438 131.056 216.392 131.01 216.392 130.953C216.392 130.842 216.153 130.575 216.054 130.575C215.976 130.575 215.516 130.121 215.516 130.043C215.516 129.965 215.255 129.709 215.175 129.709C215.094 129.709 214.834 129.453 214.834 129.372C214.834 129.292 214.575 129.036 214.494 129.036C214.393 129.036 214.153 128.77 214.153 128.658C214.153 128.601 214.087 128.555 214.007 128.555C213.926 128.555 213.861 128.511 213.861 128.458C213.861 128.406 213.729 128.362 213.569 128.362C213.374 128.362 213.277 128.314 213.277 128.218C213.277 128.139 213.232 128.074 213.178 128.074C213.124 128.074 211.743 126.753 210.108 125.14C208.386 123.439 207.062 122.205 206.959 122.205C206.862 122.205 206.664 122.097 206.519 121.965C206.375 121.833 206.215 121.724 206.164 121.724C206.114 121.724 206.072 121.659 206.072 121.58C206.072 121.501 206.028 121.436 205.975 121.436C205.848 121.436 204.709 120.311 204.709 120.185C204.709 120.132 204.671 120.089 204.624 120.089C204.501 120.089 203.346 118.962 203.346 118.842C203.346 118.787 203.311 118.742 203.268 118.742C203.143 118.742 202.47 118.102 202.47 117.984C202.47 117.925 202.425 117.876 202.371 117.876C202.317 117.876 201.84 117.443 201.311 116.914C200.71 116.313 200.274 115.952 200.148 115.952C200.038 115.952 199.838 115.844 199.704 115.712C199.57 115.579 199.415 115.471 199.359 115.471C199.303 115.471 199.257 115.423 199.257 115.364C199.257 115.245 198.584 114.605 198.459 114.605C198.416 114.605 198.381 114.559 198.381 114.502C198.381 114.369 198.133 114.124 197.998 114.124C197.941 114.124 197.894 114.09 197.894 114.047C197.894 113.924 197.246 113.259 197.126 113.259C197.066 113.259 197.018 113.212 197.018 113.156C197.018 113.022 196.77 112.778 196.635 112.778C196.578 112.778 196.531 112.743 196.531 112.7C196.531 112.577 195.883 111.912 195.763 111.912C195.703 111.912 195.655 111.864 195.655 111.805C195.655 111.686 194.981 111.046 194.857 111.046C194.814 111.046 194.778 111 194.778 110.943C194.778 110.821 194.535 110.565 194.419 110.565C194.375 110.565 194.288 110.484 194.225 110.386C194.163 110.288 193.98 110.181 193.818 110.149C193.597 110.105 192.744 109.322 190.401 107.009C188.455 105.089 187.207 103.927 187.09 103.927C186.986 103.927 186.792 103.819 186.658 103.687C186.524 103.554 186.368 103.446 186.312 103.446C186.257 103.446 186.211 103.381 186.211 103.302C186.211 103.222 186.176 103.157 186.132 103.157C186.034 103.157 185.335 102.529 185.335 102.44C185.335 102.354 185.076 102.099 184.988 102.099C184.902 102.099 184.459 101.596 184.458 101.498C184.458 101.458 184.411 101.426 184.354 101.426C184.219 101.426 183.971 101.181 183.971 101.048C183.971 100.991 183.933 100.945 183.886 100.945C183.764 100.945 182.608 99.818 182.608 99.6983C182.608 99.6431 182.571 99.598 182.526 99.598C182.48 99.598 182.305 99.4681 182.137 99.3094C181.969 99.1507 181.745 99.0208 181.64 99.0208C181.535 99.0208 181.339 98.9126 181.206 98.7803C181.072 98.648 180.916 98.5398 180.86 98.5398C180.804 98.5398 180.759 98.505 180.759 98.4624C180.759 98.3392 180.111 97.674 179.991 97.674C179.931 97.674 179.882 97.6257 179.882 97.5667C179.882 97.4482 179.209 96.8082 179.085 96.8082C179.041 96.8082 179.006 96.7618 179.006 96.7051C179.006 96.5719 178.758 96.3271 178.624 96.3271C178.566 96.3271 178.519 96.2923 178.519 96.2497C178.519 96.1266 177.872 95.4613 177.752 95.4613C177.692 95.4613 177.643 95.415 177.643 95.3583C177.643 95.2251 177.395 94.9803 177.261 94.9803C177.203 94.9803 177.156 94.9455 177.156 94.9029C177.156 94.7798 176.509 94.1145 176.389 94.1145C176.329 94.1145 176.28 94.0693 176.28 94.014C176.28 93.8834 175.833 93.4411 175.7 93.4411C175.644 93.4411 175.599 93.3978 175.599 93.3449C175.599 93.292 175.513 93.2487 175.408 93.2487C175.304 93.2487 175.108 93.1405 174.975 93.0082C174.841 92.8759 174.708 92.7677 174.681 92.7677C174.653 92.7677 173.73 91.8808 172.629 90.7967C171.491 89.676 170.523 88.7997 170.383 88.7651C170.249 88.7318 169.947 88.5148 169.712 88.283C169.478 88.0511 169.257 87.8614 169.222 87.8614C169.14 87.8614 168.881 87.6053 168.881 87.5247C168.881 87.4445 168.621 87.188 168.54 87.188C168.459 87.188 168.199 86.9315 168.199 86.8513C168.199 86.7723 167.94 86.5146 167.861 86.5146C167.76 86.5146 167.323 86.0491 167.323 85.9417C167.323 85.8864 167.276 85.8412 167.219 85.8412C167.105 85.8412 166.836 85.6043 166.836 85.5045C166.836 85.4255 166.577 85.1678 166.498 85.1678C166.42 85.1678 165.96 84.7134 165.96 84.6362C165.96 84.5548 165.698 84.302 165.613 84.302C165.576 84.302 165.474 84.2223 165.387 84.1249C165.301 84.0276 165.113 83.9194 164.97 83.8845C164.827 83.8496 164.417 83.5396 164.058 83.1957C163.699 82.8517 163.367 82.5703 163.32 82.5703C163.273 82.5703 163.234 82.524 163.234 82.4673C163.234 82.3341 162.986 82.0893 162.851 82.0893C162.794 82.0893 162.747 82.041 162.747 81.9821C162.747 81.8635 162.074 81.2235 161.949 81.2235C161.906 81.2235 161.871 81.1771 161.871 81.1205C161.871 80.9872 161.623 80.7425 161.488 80.7425C161.431 80.7425 161.384 80.7077 161.384 80.6651C161.384 80.5419 160.736 79.8767 160.617 79.8767C160.557 79.8767 160.508 79.8303 160.508 79.7737C160.508 79.6518 160.265 79.3957 160.149 79.3957C160.104 79.3957 160.013 79.3091 159.946 79.2033C159.88 79.0975 159.74 79.0109 159.635 79.0109C159.531 79.0109 159.336 78.9026 159.202 78.7704C159.069 78.6381 158.936 78.5299 158.907 78.5299C158.878 78.5299 157.846 77.5342 156.614 76.3172C155.226 74.9469 154.301 74.1046 154.183 74.1046C154.079 74.1046 153.884 73.9964 153.75 73.8641C153.616 73.7318 153.461 73.6236 153.405 73.6236C153.349 73.6236 153.303 73.5784 153.303 73.5231C153.303 73.4157 152.866 72.9502 152.765 72.9502C152.686 72.9502 152.427 72.6925 152.427 72.6135C152.427 72.5332 152.168 72.2768 152.086 72.2768C152.005 72.2768 151.746 72.0203 151.746 71.9401C151.746 71.8598 151.486 71.6034 151.405 71.6034C151.324 71.6034 151.064 71.3469 151.064 71.2666C151.064 71.1877 150.805 70.9299 150.726 70.9299C150.625 70.9299 150.188 70.4644 150.188 70.3571C150.188 70.3017 150.122 70.2565 150.042 70.2565C149.962 70.2565 149.896 70.2133 149.896 70.1603C149.896 70.1074 149.803 70.0641 149.69 70.0641C149.433 70.0641 149.535 70.1568 146.272 66.9616C144.685 65.408 143.471 64.2921 143.366 64.2921C143.268 64.2921 143.077 64.1838 142.943 64.0515C142.81 63.9193 142.677 63.811 142.648 63.811C142.62 63.811 141.698 62.9236 140.599 61.8389C139.365 60.6199 138.529 59.8668 138.412 59.8668C138.307 59.8668 138.112 59.7585 137.978 59.6263C137.844 59.494 137.689 59.3858 137.633 59.3858C137.577 59.3858 137.531 59.3394 137.531 59.2827C137.531 59.172 137.292 58.9047 137.193 58.9047C137.115 58.9047 136.655 58.4504 136.655 58.3732C136.655 58.2948 136.394 58.039 136.314 58.039C136.233 58.039 135.973 57.7825 135.973 57.7022C135.973 57.622 135.714 57.3655 135.633 57.3655C135.552 57.3655 135.292 57.1091 135.292 57.0288C135.292 56.9498 135.033 56.6921 134.954 56.6921C134.853 56.6921 134.416 56.2266 134.416 56.1192C134.416 56.0639 134.369 56.0187 134.311 56.0187C134.177 56.0187 133.929 55.774 133.929 55.6407C133.929 55.5841 133.863 55.5377 133.783 55.5377C133.703 55.5377 133.637 55.4944 133.637 55.4415C133.637 55.3886 133.505 55.3453 133.345 55.3453C133.15 55.3453 133.053 55.2972 133.053 55.201C133.053 55.1216 133.009 55.0567 132.956 55.0567C132.903 55.0567 131.915 54.1259 130.761 52.9884C128.976 51.2277 128.621 50.92 128.375 50.92C128.217 50.92 128.087 50.8737 128.087 50.817C128.087 50.7075 127.849 50.439 127.751 50.439C127.657 50.439 125.653 48.409 125.653 48.3136C125.653 48.2656 125.604 48.2264 125.543 48.2264C125.482 48.2264 125.362 48.1467 125.275 48.0494C125.189 47.952 124.995 47.8423 124.845 47.8056C124.694 47.769 124.285 47.459 123.936 47.1169C123.586 46.7747 123.26 46.4948 123.211 46.4948C123.162 46.4948 123.122 46.4484 123.122 46.3917C123.122 46.2585 122.874 46.0137 122.74 46.0137C122.682 46.0137 122.635 45.9789 122.635 45.9363C122.635 45.8132 121.988 45.1479 121.868 45.1479C121.808 45.1479 121.759 45.1016 121.759 45.0449C121.759 44.9393 121.522 44.6669 121.43 44.6669C121.363 44.6669 120.883 44.1925 120.883 44.1266C120.883 44.0357 120.607 43.8011 120.5 43.8011C120.443 43.8011 120.396 43.7528 120.396 43.6938C120.396 43.5753 119.723 42.9353 119.598 42.9353C119.555 42.9353 119.52 42.8889 119.52 42.8322C119.52 42.699 119.272 42.4543 119.137 42.4543C119.08 42.4543 119.033 42.4153 119.033 42.3677C119.033 42.255 118.358 41.5885 118.244 41.5885C118.196 41.5885 118.157 41.5421 118.157 41.4854C118.157 41.3798 117.919 41.1075 117.827 41.1075C117.761 41.1075 117.281 40.633 117.281 40.5671C117.281 40.4762 117.005 40.2416 116.898 40.2416C116.841 40.2416 116.794 40.1934 116.794 40.1344C116.794 40.0159 116.12 39.3758 115.996 39.3758C115.953 39.3758 115.918 39.3295 115.918 39.2728C115.918 39.1445 115.672 38.8948 115.545 38.8948C115.494 38.8948 115.43 38.8384 115.403 38.7693C115.376 38.7002 115.174 38.5851 114.954 38.5134C114.734 38.4417 114.555 38.325 114.555 38.2542C114.555 38.1833 114.511 38.1252 114.457 38.1252C114.404 38.1252 112.069 35.8633 109.27 33.0987C104.502 28.3902 103.805 27.7354 103.561 27.7354C103.508 27.7354 103.316 27.584 103.134 27.3988C102.952 27.2136 102.772 27.062 102.733 27.062C102.646 27.062 102.385 26.8094 102.385 26.7253C102.385 26.6464 102.126 26.3886 102.046 26.3886C101.968 26.3886 101.508 25.9343 101.508 25.8571C101.508 25.78 101.248 25.5228 101.17 25.5228C101.069 25.5228 100.632 25.0573 100.632 24.9499C100.632 24.8946 100.585 24.8494 100.528 24.8494C100.393 24.8494 100.145 24.6047 100.145 24.4714C100.145 24.4148 100.11 24.3684 100.067 24.3684C99.9423 24.3684 99.2691 23.7284 99.2691 23.6098C99.2691 23.5509 99.2234 23.5026 99.1674 23.5026C99.1114 23.5026 98.9637 23.402 98.8391 23.2789C98.7146 23.1559 98.4647 22.9951 98.2838 22.9217C98.1028 22.8483 97.5124 22.3521 96.9716 21.8189C96.2623 21.1193 95.8759 20.8127 95.5842 20.7176C95.3619 20.6451 95.18 20.5278 95.18 20.4568C95.18 20.386 95.1427 20.3279 95.0971 20.3279C95.0516 20.3279 94.6094 19.9383 94.1144 19.4621C93.6195 18.9859 93.1529 18.5963 93.0776 18.5963C93.0024 18.5963 92.9408 18.553 92.9408 18.5001C92.9408 18.4472 92.8743 18.4039 92.793 18.4039C92.7118 18.4039 92.4963 18.2524 92.3144 18.0672C92.1323 17.882 91.9547 17.7305 91.9197 17.7305C91.8375 17.7305 91.5778 17.4747 91.5778 17.3938C91.5778 17.2939 91.3087 17.0571 91.1952 17.0571C91.1378 17.0571 91.091 17.0204 91.091 16.9755C91.091 16.9306 90.9047 16.8129 90.6772 16.7138C90.4496 16.6148 90.0408 16.3137 89.7689 16.0446C89.4969 15.7755 89.1026 15.4753 88.8927 15.3774C88.6827 15.2795 88.4401 15.1196 88.3535 15.0219C88.2668 14.9243 88.1464 14.8445 88.0857 14.8445C88.0251 14.8445 87.9755 14.8077 87.9755 14.7629C87.9755 14.718 87.7892 14.5999 87.5617 14.5005C87.3341 14.401 86.9633 14.1347 86.7377 13.9086C86.5121 13.6825 86.2822 13.4977 86.2266 13.4977C86.1711 13.4977 86.1256 13.4609 86.1256 13.4161C86.1256 13.3711 85.9495 13.256 85.7343 13.1601C85.519 13.0641 85.2141 12.8641 85.0567 12.7155C84.8994 12.5669 84.6165 12.3817 84.4282 12.3039C84.2398 12.2261 83.9888 12.0733 83.8703 11.9643C83.7519 11.8552 83.5592 11.766 83.4421 11.766C83.3251 11.766 83.068 11.62 82.8706 11.4414C82.6734 11.2629 82.3393 11.0398 82.1282 10.9458C81.9172 10.8517 81.7445 10.7381 81.7445 10.6932C81.7445 10.6483 81.6891 10.6116 81.6215 10.6116C81.5539 10.6116 81.4164 10.5034 81.3158 10.3711C81.2153 10.2388 81.0516 10.1306 80.952 10.1306C80.8524 10.1306 80.7709 10.0873 80.7709 10.0344C80.7709 9.98145 80.688 9.93817 80.5866 9.93817C80.4853 9.93817 80.378 9.87555 80.3482 9.79889C80.3185 9.72229 80.1071 9.60995 79.8786 9.54916C79.65 9.48825 79.3907 9.35614 79.3023 9.25543C79.2082 9.14825 79.0152 9.07236 78.8366 9.07236C78.6689 9.07236 78.5316 9.026 78.5316 8.96933C78.5316 8.83609 78.2839 8.59134 78.1491 8.59134C78.0917 8.59134 78.0449 8.55276 78.0449 8.50562C78.0449 8.45837 77.8611 8.3472 77.6367 8.25848C77.4122 8.16971 77.1551 8.01346 77.0654 7.91129C76.9745 7.80768 76.7778 7.72552 76.6208 7.72552C76.4446 7.72552 76.2936 7.65347 76.2176 7.53314C76.1504 7.42685 75.9905 7.34073 75.8604 7.34073C75.7308 7.34073 75.5591 7.27579 75.4788 7.19641C75.3984 7.11707 75.2857 7.05212 75.2283 7.05212C75.171 7.05212 75.1241 7.00882 75.1241 6.9559C75.1241 6.90302 75.0165 6.85974 74.885 6.85974C74.7536 6.85974 74.5366 6.7515 74.4027 6.61923C74.2497 6.46799 74.0493 6.37872 73.8628 6.37872C73.6743 6.37872 73.5663 6.32993 73.5663 6.24469C73.5663 6.0777 73.4134 6.01855 72.7643 5.93448C72.4552 5.89444 72.1896 5.79764 72.0945 5.69049C72.0043 5.58868 71.8068 5.51291 71.632 5.51291C71.4643 5.51291 71.3271 5.46356 71.3271 5.40326C71.3271 5.24155 71.0183 5.03845 70.7672 5.03497C70.6467 5.03323 70.4675 4.95215 70.3689 4.85471C70.2636 4.7507 69.9779 4.65268 69.6775 4.61755C69.3387 4.57794 69.107 4.49133 68.9933 4.36185C68.8912 4.24551 68.7021 4.16608 68.527 4.16608C68.3607 4.16608 68.209 4.10587 68.1787 4.02774C68.1225 3.88297 67.5404 3.68655 67.1649 3.68567C67.0444 3.68539 66.8583 3.59848 66.7512 3.49268C66.6151 3.35818 66.4267 3.30026 66.1253 3.30026C65.8718 3.30026 65.634 3.24081 65.5481 3.15598C65.4678 3.0766 65.3551 3.01166 65.2977 3.01166C65.2403 3.01166 65.1935 2.96838 65.1935 2.91547C65.1935 2.86255 64.9525 2.81927 64.658 2.81927C64.2652 2.81927 64.1225 2.78357 64.1225 2.68524C64.1225 2.51825 63.9696 2.45908 63.3205 2.375C63.0114 2.33499 62.7457 2.23819 62.6507 2.13101C62.5276 1.99219 62.3537 1.95343 61.8545 1.95343C61.4164 1.95343 61.1697 1.90814 61.0696 1.80914C60.9893 1.72977 60.8766 1.66486 60.8192 1.66486C60.7619 1.66486 60.7149 1.62155 60.7149 1.56863C60.7149 1.51254 60.3904 1.47244 59.936 1.47244C59.3352 1.47244 59.1572 1.44186 59.1572 1.33844C59.1572 1.15631 58.9949 1.10727 58.1384 1.03058C57.7349 0.994415 57.4047 0.927582 57.4047 0.881958C57.4047 0.836365 57.339 0.799011 57.2587 0.799011C57.1783 0.799011 57.1126 0.755737 57.1126 0.70282C57.1126 0.645782 56.7543 0.606628 56.2325 0.606628C55.4723 0.606628 55.3119 0.577087 55.056 0.390167L54.7599 0.173706L47.8798 0.144379C44.0958 0.128204 40.7733 0.141785 40.4966 0.174408C40.2123 0.207886 39.8987 0.31485 39.7758 0.420197C39.594 0.57605 39.4088 0.606628 38.6482 0.606628C38.1064 0.606628 37.7382 0.645569 37.7382 0.70282C37.7382 0.755737 37.6725 0.799011 37.5922 0.799011C37.5118 0.799011 37.4461 0.837799 37.4461 0.885223C37.4461 0.932648 37.093 1.00229 36.6614 1.04001C36.0456 1.09387 35.852 1.14786 35.7618 1.29053C35.6728 1.43146 35.5314 1.47244 35.1347 1.47244C34.8531 1.47244 34.6227 1.51572 34.6227 1.56863C34.6227 1.62155 34.5758 1.66486 34.5185 1.66486C34.4611 1.66486 34.3483 1.72977 34.268 1.80914C34.1679 1.90814 33.9213 1.95343 33.4832 1.95343C32.9764 1.95343 32.8111 1.99127 32.6837 2.13654C32.5953 2.23724 32.336 2.36932 32.1074 2.43024C31.8789 2.49103 31.6675 2.60339 31.6378 2.67996C31.6006 2.77548 31.4327 2.81927 31.103 2.81927C30.7199 2.81927 30.5727 2.86813 30.3787 3.05975C30.2449 3.19205 30.0388 3.30035 29.9208 3.30035C29.8027 3.30045 29.5789 3.40869 29.4232 3.54086C29.2676 3.67313 29.0631 3.78125 28.9687 3.78125C28.6927 3.78125 28.4891 3.88776 28.4891 4.03207C28.4891 4.11731 28.3811 4.16608 28.1926 4.16608C28.0061 4.16608 27.8057 4.25534 27.6526 4.40659C27.5188 4.53885 27.3272 4.64709 27.2269 4.64709C26.941 4.64709 26.7366 4.75156 26.7366 4.89789C26.7366 4.98389 26.6274 5.03189 26.4314 5.03189C26.2308 5.03189 26.0488 5.11444 25.9005 5.2724C25.7765 5.40466 25.6072 5.51291 25.5243 5.51291C25.4413 5.51291 25.3736 5.55621 25.3736 5.6091C25.3736 5.66202 25.2822 5.70532 25.1708 5.70532C25.0592 5.70532 24.819 5.85681 24.637 6.04199C24.455 6.2272 24.2396 6.37872 24.1584 6.37872C24.0771 6.37872 24.0106 6.42203 24.0106 6.47491C24.0106 6.52783 23.944 6.57111 23.8627 6.57111C23.7816 6.57111 23.5734 6.71265 23.4003 6.88571C23.2273 7.05865 22.8986 7.28204 22.67 7.3822C22.4413 7.48224 22.1254 7.6857 21.9681 7.83423C21.8107 7.98285 21.5208 8.17105 21.3237 8.25235C21.1266 8.33374 20.8212 8.55145 20.6448 8.73633C20.4684 8.92114 20.2933 9.07236 20.2559 9.07236C20.2184 9.07236 20.1158 9.15424 20.028 9.25436C19.9401 9.35452 19.711 9.50131 19.5188 9.58069C19.2893 9.67535 17.761 11.1166 15.0669 13.7787C11.5038 17.2996 10.9644 17.8701 10.9644 18.1182C10.9644 18.2754 10.9175 18.4039 10.8602 18.4039C10.7469 18.4039 10.4777 18.6407 10.4777 18.7403C10.4777 18.7742 10.2805 18.9885 10.0396 19.2166C9.79858 19.4448 9.60144 19.7198 9.60144 19.8278C9.60144 19.9358 9.4043 20.2189 9.16333 20.457C8.92236 20.6951 8.72516 20.9367 8.72516 20.9937C8.72516 21.0508 8.67828 21.0975 8.62097 21.0975C8.42322 21.0975 8.2384 21.3732 8.2384 21.6679C8.2384 21.8304 8.19153 21.9634 8.13416 21.9634C8.00983 21.9634 7.75159 22.2041 7.75159 22.3201C7.75159 22.3651 7.664 22.4643 7.55688 22.5406C7.44678 22.619 7.36218 22.7896 7.36218 22.9332C7.36218 23.0916 7.27075 23.2549 7.11877 23.3676C6.98492 23.467 6.87537 23.5871 6.87537 23.6344C6.87537 23.6817 6.79358 23.7906 6.69366 23.8763C6.59381 23.9619 6.48267 24.1642 6.44672 24.3258C6.41077 24.4874 6.29541 24.6809 6.19025 24.7558C6.0672 24.8434 5.99915 25.0042 5.99915 25.2074C5.99915 25.3808 5.95227 25.5228 5.8949 25.5228C5.77057 25.5228 5.51233 25.7636 5.51233 25.8795C5.51233 25.9246 5.42474 26.0237 5.31763 26.1C5.21051 26.1763 5.12292 26.3354 5.12292 26.4536C5.12292 26.5718 5.01337 26.7767 4.87952 26.909C4.7265 27.0602 4.63611 27.2582 4.63611 27.4425C4.63611 27.6037 4.58618 27.7354 4.52509 27.7354C4.35455 27.7354 4.15588 28.0446 4.15247 28.3155C4.1507 28.4493 4.06171 28.6212 3.95459 28.6975C3.84088 28.7785 3.75989 28.9465 3.75989 29.1016C3.75989 29.4195 3.4823 30.1405 3.35986 30.1405C3.31213 30.1405 3.27307 30.275 3.27307 30.4393C3.27307 30.6434 3.19598 30.798 3.02972 30.9273C2.83557 31.0782 2.78632 31.2027 2.78632 31.5424C2.78632 31.7767 2.74249 31.9683 2.68896 31.9683C2.63544 31.9683 2.59155 32.0549 2.59155 32.1607C2.59155 32.2665 2.54779 32.3531 2.49426 32.3531C2.44067 32.3531 2.39685 32.5032 2.39685 32.6866C2.39685 33.0323 2.12842 33.7 1.98938 33.7C1.9458 33.7 1.91003 33.9164 1.91003 34.181C1.91003 34.4455 1.87701 34.662 1.83649 34.662C1.61743 34.662 1.32593 35.9239 1.32593 36.8725C1.32593 37.3324 1.28137 37.5783 1.17987 37.6786C1.09955 37.7579 1.03381 37.9904 1.03381 38.1953C1.03381 38.4001 0.988647 38.6124 0.933472 38.6669C0.866394 38.7332 0.846802 40.1658 0.874207 42.9912C0.914551 47.1325 0.965759 48.1219 1.14594 48.2343C1.19531 48.2651 1.3053 48.7629 1.39014 49.3406C1.47504 49.9183 1.58307 50.4053 1.63 50.4229C1.67694 50.4406 1.71533 50.5164 1.71533 50.5913C1.71533 50.6662 1.75916 50.7276 1.81274 50.7276C1.86627 50.7276 1.91003 50.9621 1.91003 51.2488C1.91003 51.5353 1.95544 51.7848 2.01086 51.8029C2.12341 51.8401 2.388 52.8431 2.39337 53.2529C2.39532 53.3984 2.44067 53.5175 2.49426 53.5175C2.54779 53.5175 2.59155 53.5824 2.59155 53.6618C2.59155 53.7411 2.63544 53.8061 2.68896 53.8061C2.74249 53.8061 2.78632 53.9373 2.78632 54.0977C2.78632 54.2681 2.84692 54.4123 2.93231 54.4447C3.01263 54.4752 3.07837 54.5604 3.07837 54.6341C3.07837 54.7078 3.12219 54.7681 3.17572 54.7681C3.22931 54.7681 3.27307 54.9876 3.27307 55.2559C3.27307 55.7275 3.41919 56.0187 3.65564 56.0187C3.71301 56.0187 3.75989 56.1607 3.75989 56.3342C3.75989 56.5392 3.828 56.6982 3.95459 56.7883C4.0719 56.8718 4.14929 57.0374 4.14929 57.2046C4.14929 57.386 4.23358 57.5476 4.39276 57.6714C4.53925 57.7852 4.63611 57.9586 4.63611 58.1071C4.63611 58.2464 4.74188 58.4504 4.87952 58.5765C5.02252 58.7074 5.12292 58.9057 5.12292 59.0572C5.12292 59.199 5.20471 59.3852 5.30457 59.4708C5.40448 59.5564 5.51752 59.7671 5.55566 59.939C5.59393 60.1109 5.68451 60.2516 5.75696 60.2516C5.82941 60.2516 5.9198 60.3489 5.95789 60.468C5.99585 60.5871 6.10547 60.752 6.20123 60.8345C6.29718 60.917 6.40735 61.1118 6.44629 61.2674C6.48523 61.423 6.59772 61.6203 6.69623 61.7058C6.79474 61.7915 6.87537 61.9541 6.87537 62.0673C6.87537 62.1805 6.98492 62.3672 7.11877 62.4822C7.25269 62.5972 7.36218 62.7288 7.36218 62.7746C7.36218 62.8204 7.47168 62.966 7.60559 63.0983C7.73944 63.2305 7.84894 63.445 7.84894 63.5749C7.84894 63.7469 7.90179 63.811 8.04364 63.811C8.18268 63.811 8.2384 63.8752 8.2384 64.0353C8.2384 64.176 8.32904 64.3074 8.48181 64.3882C8.65625 64.4805 8.72516 64.5966 8.72516 64.7983C8.72516 64.9972 8.78137 65.0942 8.91669 65.1292C9.02203 65.1563 9.13446 65.2606 9.16669 65.3607C9.19885 65.4609 9.30981 65.5876 9.41333 65.6423C9.51672 65.6971 9.60144 65.795 9.60144 65.8599C9.60144 65.9249 9.711 66.0593 9.84485 66.1586C10.0027 66.2758 10.0882 66.4336 10.0882 66.6079C10.0882 66.7897 10.1495 66.8957 10.278 66.936C10.3823 66.9687 10.4948 67.0799 10.5279 67.183C10.561 67.2861 10.6479 67.3705 10.7211 67.3705C10.7942 67.3705 10.8811 67.4549 10.9142 67.558C10.9473 67.6611 11.0575 67.7715 11.1592 67.8034C11.2608 67.8352 11.3704 67.9435 11.4026 68.0439C11.4348 68.1443 11.5465 68.2532 11.6509 68.2859C11.7552 68.3187 11.8407 68.4189 11.8407 68.5086C11.8407 68.5982 11.9503 68.7529 12.0841 68.8523C12.2443 68.9712 12.3275 69.1268 12.3275 69.308C12.3275 69.5189 12.3729 69.5831 12.5222 69.5831C12.6293 69.5831 12.7169 69.6295 12.7169 69.6862C12.7169 69.8194 12.9647 70.0641 13.0995 70.0641C13.1568 70.0641 13.2037 70.1089 13.2037 70.1635C13.2037 70.2929 13.8484 70.9299 13.9794 70.9299C14.0347 70.9299 14.08 70.9751 14.08 71.0305C14.08 71.1611 14.5275 71.6034 14.6597 71.6034C14.7157 71.6034 14.7615 71.6486 14.7615 71.7039C14.7615 71.8345 15.209 72.2768 15.3412 72.2768C15.3972 72.2768 15.443 72.322 15.443 72.3773C15.443 72.4847 15.8802 72.9502 15.981 72.9502C16.0603 72.9502 16.3192 73.2079 16.3192 73.2869C16.3192 73.3867 16.5883 73.6236 16.7018 73.6236C16.7591 73.6236 16.806 73.6683 16.806 73.723C16.806 73.8524 17.4507 74.4894 17.5817 74.4894C17.637 74.4894 17.6823 74.5346 17.6823 74.5899C17.6823 74.7206 18.1298 75.1628 18.262 75.1628C18.318 75.1628 18.3637 75.208 18.3637 75.2633C18.3637 75.394 18.8113 75.8362 18.9435 75.8362C18.9995 75.8362 19.0452 75.8814 19.0452 75.9368C19.0452 76.0674 19.4929 76.5096 19.6251 76.5096C19.681 76.5096 19.7267 76.5529 19.7267 76.6058C19.7267 76.6587 19.8035 76.7034 19.8972 76.7051C20.1075 76.7089 20.4083 76.9255 20.4083 77.0734C20.4083 77.1337 20.4518 77.1831 20.5049 77.1831C20.6649 77.1831 20.9897 77.4885 24.2657 80.7185C25.9965 82.4249 27.4854 83.821 27.5742 83.821C27.6632 83.821 27.8805 83.9725 28.0573 84.1577C28.234 84.3428 28.42 84.4944 28.4706 84.4944C28.5212 84.4944 30.0309 85.9446 31.8256 87.7171C33.6203 89.4896 35.1591 90.9399 35.2451 90.9399C35.3312 90.9399 35.5758 91.1022 35.7889 91.3006C36.7082 92.157 36.8618 92.2867 36.9566 92.2867C37.0117 92.2867 37.0567 92.3321 37.0567 92.3876C37.0567 92.518 38.1873 93.6335 38.3193 93.6335C38.3746 93.6335 38.4197 93.6787 38.4197 93.734C38.4197 93.8647 38.8673 94.3069 38.9995 94.3069C39.0555 94.3069 39.1012 94.3521 39.1012 94.4074C39.1012 94.5381 39.5488 94.9803 39.681 94.9803C39.737 94.9803 39.7827 95.025 39.7827 95.0795C39.7827 95.2101 40.9117 96.3271 41.0437 96.3271C41.0999 96.3271 41.1458 96.3719 41.1458 96.4265C41.1458 96.5559 41.7905 97.193 41.9214 97.193C41.9767 97.193 42.022 97.2393 42.022 97.296C42.022 97.4658 42.2863 97.674 42.5019 97.674C42.6128 97.674 42.7035 97.7173 42.7035 97.7702C42.7035 97.8231 42.7458 97.8664 42.7975 97.8664C42.9299 97.8664 42.9674 97.902 46.6649 101.528C48.4955 103.324 50.0617 104.793 50.1451 104.793C50.2287 104.793 50.4597 104.944 50.6584 105.13C50.8571 105.315 51.0574 105.466 51.1036 105.466C51.2219 105.466 51.4658 105.721 51.4658 105.844C51.4658 105.901 51.5052 105.947 51.5534 105.947C51.6579 105.947 52.3421 106.609 52.3421 106.71C52.3421 106.749 52.4516 106.839 52.5854 106.909C52.7193 106.98 52.8289 107.096 52.8289 107.166C52.8289 107.236 52.8617 107.295 52.9019 107.296C53.0147 107.3 53.7051 107.937 53.7051 108.038C53.7051 108.087 53.8146 108.185 53.9485 108.256C54.0823 108.327 54.1919 108.442 54.1919 108.513C54.1919 108.583 54.2247 108.642 54.2649 108.643C54.3881 108.647 55.0681 109.289 55.0681 109.401C55.0681 109.459 55.1063 109.507 55.1528 109.507C55.2647 109.507 56.4311 110.658 56.4311 110.768C56.4311 110.815 56.464 110.855 56.5042 110.856C56.6049 110.859 57.3074 111.491 57.3074 111.579C57.3074 111.694 57.6344 111.905 57.8185 111.909C57.9122 111.91 57.9889 111.955 57.9889 112.008C57.9889 112.061 58.0345 112.104 58.0903 112.104C58.1965 112.104 58.3287 112.2 58.7194 112.561C58.8481 112.68 58.9995 112.778 59.0555 112.778C59.1115 112.778 59.1572 112.822 59.1572 112.877C59.1572 113.007 60.2862 114.124 60.4181 114.124C60.4742 114.124 60.5202 114.169 60.5202 114.224C60.5202 114.353 61.1649 114.99 61.2959 114.99C61.3512 114.99 61.3965 115.036 61.3965 115.091C61.3965 115.222 62.527 116.337 62.6591 116.337C62.7143 116.337 62.7595 116.382 62.7595 116.436C62.7595 116.567 63.8884 117.684 64.0204 117.684C64.0765 117.684 64.1225 117.729 64.1225 117.783C64.1225 117.944 65.267 119.031 65.4362 119.031C65.5215 119.031 65.7096 119.139 65.8539 119.271C65.9982 119.403 66.1468 119.512 66.1839 119.512C66.2211 119.512 67.6531 120.897 69.3662 122.59C71.0795 124.283 72.556 125.669 72.6474 125.669C72.739 125.669 72.9153 125.777 73.0394 125.909C73.1634 126.041 73.3327 126.15 73.4156 126.15C73.4986 126.15 73.5663 126.195 73.5663 126.25C73.5663 126.358 74.0035 126.823 74.1043 126.823C74.1837 126.823 74.4426 127.081 74.4426 127.16C74.4426 127.26 74.7115 127.496 74.8251 127.496C74.8824 127.496 74.9294 127.536 74.9294 127.584C74.9294 127.706 75.5849 128.362 75.7065 128.362C75.761 128.362 75.8056 128.407 75.8056 128.463C75.8056 128.579 76.2454 129.034 76.361 129.038C76.4036 129.04 76.5479 129.19 76.6818 129.372C76.8157 129.555 76.9799 129.705 77.0469 129.706C77.1138 129.708 77.1686 129.774 77.1686 129.853C77.1686 129.933 77.2037 129.998 77.2466 129.998C77.3575 129.998 78.2396 130.858 78.2396 130.966C78.2396 131.015 78.3053 131.056 78.3856 131.056C78.4659 131.056 78.5316 131.095 78.5316 131.142C78.5316 131.246 79.2016 131.922 79.3038 131.922C79.343 131.922 79.4336 132.03 79.5052 132.162C79.5769 132.294 79.6842 132.403 79.7436 132.403C79.8031 132.403 79.9148 132.489 79.992 132.595C80.0692 132.701 80.1994 132.789 80.2813 132.791C80.474 132.795 80.7709 133.018 80.7709 133.159C80.7709 133.219 80.8369 133.269 80.9175 133.269C80.9981 133.269 81.2585 133.463 81.496 133.701C81.7336 133.94 81.9742 134.134 82.0309 134.134C82.0876 134.134 82.1339 134.18 82.1339 134.236C82.1339 134.425 87.7734 139.906 87.9686 139.906C88.0717 139.906 88.2422 140.015 88.3474 140.147C88.4528 140.279 88.5835 140.387 88.6379 140.387C88.6924 140.387 90.2471 141.881 92.0928 143.706C93.9533 145.546 95.5251 147.025 95.6197 147.025C95.7137 147.025 95.892 147.134 96.0161 147.266C96.1402 147.398 96.3095 147.506 96.3923 147.506C96.4753 147.506 96.5431 147.552 96.5431 147.607C96.5431 147.738 96.9906 148.18 97.1229 148.18C97.1788 148.18 97.2246 148.225 97.2246 148.28C97.2246 148.411 97.6721 148.853 97.8044 148.853C97.8604 148.853 97.9061 148.898 97.9061 148.953C97.9061 149.082 98.5508 149.719 98.6817 149.719C98.737 149.719 98.7823 149.765 98.7823 149.822C98.7823 149.955 99.03 150.2 99.1648 150.2C99.2222 150.2 99.2691 150.245 99.2691 150.299C99.2691 150.429 99.9138 151.066 100.045 151.066C100.1 151.066 100.145 151.111 100.145 151.166C100.145 151.297 100.593 151.739 100.725 151.739C100.781 151.739 100.827 151.784 100.827 151.84C100.827 151.97 101.274 152.413 101.407 152.413C101.463 152.413 101.508 152.457 101.508 152.512C101.508 152.641 102.153 153.278 102.284 153.278C102.339 153.278 102.385 153.328 102.385 153.388C102.385 153.536 102.685 153.753 102.896 153.756C102.989 153.758 103.066 153.803 103.066 153.856C103.066 153.909 103.112 153.952 103.168 153.952C103.318 153.952 103.314 153.948 106.718 157.295C108.453 159.001 109.946 160.397 110.036 160.397C110.126 160.397 110.301 160.506 110.425 160.638C110.549 160.77 110.692 160.878 110.742 160.878C110.793 160.878 112.256 162.285 113.994 164.005C115.733 165.725 117.227 167.131 117.315 167.131C117.403 167.131 117.475 167.175 117.475 167.228C117.475 167.281 117.521 167.324 117.577 167.324C117.683 167.324 117.815 167.42 118.206 167.781C118.335 167.9 118.486 167.997 118.542 167.997C118.598 167.997 118.644 168.042 118.644 168.097C118.644 168.226 119.288 168.863 119.419 168.863C119.475 168.863 119.52 168.909 119.52 168.964C119.52 169.094 120.65 170.21 120.782 170.21C120.838 170.21 120.883 170.255 120.883 170.31C120.883 170.418 121.32 170.883 121.421 170.883C121.5 170.883 121.759 171.141 121.759 171.22C121.759 171.32 122.028 171.557 122.142 171.557C122.199 171.557 122.246 171.601 122.246 171.656C122.246 171.786 122.891 172.423 123.021 172.423C123.077 172.423 123.122 172.469 123.122 172.526C123.122 172.659 123.37 172.904 123.505 172.904C123.562 172.904 123.609 172.943 123.609 172.991C123.609 173.181 124.295 173.769 124.516 173.769C124.66 173.769 124.792 173.858 124.875 174.01C124.946 174.142 125.061 174.25 125.13 174.25C125.198 174.25 126.65 175.63 128.357 177.317C130.063 179.003 131.566 180.415 131.696 180.454C131.826 180.493 132.021 180.603 132.128 180.7C132.235 180.796 132.445 180.986 132.595 181.122C132.744 181.258 132.891 181.369 132.921 181.369C132.997 181.369 133.632 182.076 133.635 182.163C133.636 182.203 133.677 182.235 133.725 182.235C133.803 182.235 136.655 184.997 136.655 185.072C136.655 185.112 137.347 185.795 137.387 185.795C137.404 185.795 137.616 185.989 137.857 186.227C138.098 186.466 138.367 186.66 138.455 186.66C138.637 186.66 138.894 186.882 138.894 187.038C138.894 187.095 138.96 187.141 139.041 187.141C139.121 187.141 139.382 187.336 139.619 187.574C139.857 187.812 140.098 188.007 140.154 188.007C140.211 188.007 140.257 188.053 140.257 188.108C140.257 188.238 141.388 189.354 141.52 189.354C141.575 189.354 141.62 189.399 141.62 189.453C141.62 189.583 142.265 190.22 142.396 190.22C142.451 190.22 142.497 190.266 142.497 190.323C142.497 190.456 142.744 190.701 142.879 190.701C142.936 190.701 142.983 190.746 142.983 190.8C142.983 190.93 143.628 191.567 143.759 191.567C143.814 191.567 143.86 191.614 143.86 191.671C143.86 191.845 144.532 192.432 144.73 192.432C144.833 192.432 145.003 192.541 145.108 192.673C145.213 192.805 145.344 192.913 145.398 192.913C145.452 192.913 146.811 194.212 148.419 195.8C150.027 197.387 151.417 198.686 151.509 198.686C151.6 198.686 151.776 198.794 151.9 198.926C152.024 199.058 152.194 199.167 152.276 199.167C152.359 199.167 152.427 199.211 152.427 199.265C152.427 199.375 153.087 200.032 153.198 200.032C153.238 200.032 153.329 200.141 153.401 200.273C153.472 200.405 153.571 200.513 153.619 200.513C153.713 200.513 153.985 200.755 153.985 200.839C153.985 200.919 154.472 201.379 154.557 201.379C154.599 201.379 154.692 201.487 154.764 201.62C154.835 201.752 154.936 201.86 154.986 201.86C155.094 201.86 155.737 202.535 155.737 202.649C155.737 202.691 155.803 202.726 155.883 202.726C155.964 202.726 156.029 202.77 156.029 202.824C156.029 202.944 156.693 203.592 156.817 203.592C156.866 203.592 156.906 203.649 156.906 203.72C156.906 203.79 157.015 203.906 157.149 203.977C157.283 204.047 157.392 204.138 157.392 204.177C157.392 204.287 158.057 204.939 158.17 204.939C158.224 204.939 158.269 205.004 158.269 205.083C158.269 205.162 158.304 205.227 158.347 205.227C158.45 205.227 159.145 205.858 159.145 205.951C159.145 206.069 159.472 206.279 159.66 206.282C159.757 206.284 159.942 206.383 160.073 206.502C160.7 207.072 160.8 207.151 160.894 207.151C160.949 207.151 160.995 207.198 160.995 207.255C160.995 207.391 162.116 208.498 162.253 208.498C162.31 208.498 162.358 208.543 162.358 208.598C162.358 208.727 163.002 209.364 163.133 209.364C163.189 209.364 163.234 209.409 163.234 209.465C163.234 209.645 164.391 210.711 164.587 210.711C164.692 210.711 164.864 210.819 164.969 210.951C165.074 211.084 165.207 211.192 165.263 211.192C165.319 211.192 166.76 212.571 168.464 214.257C170.169 215.943 171.668 217.355 171.796 217.395C171.924 217.435 172.13 217.56 172.255 217.673C172.379 217.786 172.589 217.975 172.722 218.094C172.855 218.213 173.008 218.311 173.064 218.311C173.119 218.311 173.165 218.355 173.165 218.41C173.165 218.539 173.809 219.177 173.94 219.177C173.996 219.177 174.041 219.223 174.041 219.28C174.041 219.402 174.284 219.658 174.4 219.658C174.445 219.658 174.566 219.769 174.669 219.904C175.01 220.352 175.182 220.523 175.294 220.523C175.354 220.523 175.404 220.578 175.404 220.645C175.404 220.712 175.516 220.85 175.653 220.951C176.06 221.253 176.28 221.455 176.28 221.528C176.28 221.632 176.546 221.87 176.663 221.87C176.72 221.87 176.767 221.915 176.767 221.971C176.767 222.078 177.204 222.544 177.305 222.544C177.388 222.544 177.643 222.803 177.643 222.887C177.643 223 177.972 223.211 178.154 223.214C178.248 223.216 178.325 223.251 178.325 223.292C178.325 223.334 178.463 223.449 178.632 223.547C178.801 223.646 179.913 224.69 181.102 225.866C182.292 227.043 183.37 228.039 183.497 228.079C183.624 228.118 183.799 228.231 183.886 228.329C183.972 228.428 184.088 228.508 184.144 228.508C184.199 228.508 185.552 229.796 187.15 231.371C188.749 232.946 190.188 234.292 190.349 234.362C190.648 234.493 190.677 234.516 191.295 235.095C191.494 235.282 191.702 235.435 191.757 235.435C191.812 235.435 191.858 235.48 191.858 235.535C191.858 235.666 192.305 236.108 192.437 236.108C192.493 236.108 192.539 236.153 192.539 236.209C192.539 236.316 192.976 236.781 193.077 236.781C193.156 236.781 193.415 237.039 193.415 237.118C193.415 237.198 193.675 237.455 193.756 237.455C193.836 237.455 194.097 237.711 194.097 237.789C194.097 237.889 194.568 238.321 194.677 238.321C194.733 238.321 194.778 238.366 194.778 238.421C194.778 238.552 195.226 238.994 195.358 238.994C195.414 238.994 195.46 239.039 195.46 239.095C195.46 239.271 195.931 239.667 196.14 239.667C196.392 239.667 196.314 239.597 199.307 242.529C200.836 244.027 201.858 244.959 201.975 244.959C202.079 244.959 202.243 245.056 202.341 245.175C202.439 245.295 202.629 245.463 202.764 245.548C202.899 245.634 204.067 246.749 205.358 248.025C206.65 249.301 207.779 250.346 207.867 250.346C207.956 250.346 208.135 250.443 208.266 250.562C208.892 251.132 208.993 251.212 209.087 251.212C209.142 251.212 209.188 251.258 209.188 251.315C209.188 251.448 209.435 251.693 209.57 251.693C209.627 251.693 209.674 251.737 209.674 251.792C209.674 251.921 210.319 252.558 210.45 252.558C210.505 252.558 210.551 252.604 210.551 252.659C210.551 252.79 210.998 253.232 211.13 253.232C211.186 253.232 211.232 253.277 211.232 253.332C211.232 253.463 211.68 253.905 211.812 253.905C211.868 253.905 211.914 253.95 211.914 254.006C211.914 254.136 212.361 254.579 212.493 254.579C212.549 254.579 212.595 254.624 212.595 254.679C212.595 254.859 213.067 255.252 213.283 255.252C213.398 255.252 213.578 255.36 213.683 255.493C213.789 255.625 213.915 255.733 213.963 255.733C214.012 255.733 215.255 256.924 216.725 258.379C218.195 259.834 219.469 261.024 219.554 261.024C219.64 261.024 219.829 261.132 219.973 261.265C220.118 261.397 220.273 261.505 220.319 261.505C220.416 261.505 221.06 262.192 221.063 262.299C221.064 262.339 221.131 262.371 221.211 262.371C221.292 262.371 221.357 262.436 221.357 262.515C221.357 262.595 221.398 262.66 221.447 262.66C221.564 262.66 222.428 263.514 222.428 263.629C222.428 263.678 222.494 263.718 222.574 263.718C222.655 263.718 222.72 263.783 222.72 263.862C222.72 263.941 222.753 264.007 222.793 264.007C222.834 264.007 223.006 264.137 223.178 264.296C223.349 264.454 223.558 264.584 223.643 264.584C223.803 264.584 223.935 264.689 224.761 265.474C225.026 265.725 225.288 265.93 225.344 265.93C225.401 265.93 225.446 265.975 225.446 266.03C225.446 266.159 226.091 266.796 226.222 266.796C226.277 266.796 226.323 266.842 226.323 266.897C226.323 267.028 227.453 268.143 227.585 268.143C227.641 268.143 227.686 268.186 227.686 268.239C227.686 268.365 228.824 269.49 228.951 269.49C229.005 269.49 229.049 269.55 229.049 269.623C229.049 269.696 229.191 269.812 229.365 269.882C229.539 269.951 229.752 270.087 229.839 270.182C229.926 270.278 230.042 270.356 230.099 270.356C230.155 270.356 231.318 271.46 232.684 272.809C234.135 274.243 235.241 275.262 235.346 275.262C235.445 275.262 235.608 275.37 235.708 275.503C235.809 275.635 235.951 275.743 236.024 275.743C236.096 275.743 236.156 275.786 236.156 275.839C236.156 275.892 236.222 275.935 236.302 275.935C236.382 275.935 236.448 275.981 236.448 276.036C236.448 276.167 236.896 276.609 237.028 276.609C237.084 276.609 237.13 276.655 237.13 276.712C237.13 276.824 237.369 277.09 237.47 277.09C237.545 277.09 237.811 277.344 237.811 277.415C237.811 277.504 238.303 277.956 238.4 277.956C238.451 277.956 238.493 278.01 238.493 278.077C238.493 278.144 238.605 278.282 238.742 278.384C239.158 278.693 239.369 278.888 239.369 278.966C239.369 279.086 239.694 279.296 239.883 279.299C240.095 279.303 240.145 279.347 242.146 281.299C243.027 282.158 243.817 282.862 243.9 282.862C243.983 282.862 244.16 282.97 244.294 283.102C244.428 283.235 244.574 283.343 244.618 283.343C244.663 283.343 245.097 283.733 245.584 284.209C246.07 284.685 246.538 285.075 246.623 285.075C246.708 285.075 246.882 285.172 247.011 285.291C247.364 285.617 247.532 285.748 247.598 285.748C247.681 285.748 247.936 286.007 247.936 286.091C247.936 286.204 248.265 286.415 248.444 286.418C248.618 286.421 248.722 286.502 249.568 287.291C249.85 287.553 250.152 287.768 250.239 287.768C250.325 287.768 250.467 287.847 250.554 287.943C250.64 288.04 250.854 288.201 251.028 288.301C251.202 288.401 251.344 288.517 251.344 288.559C251.344 288.6 251.434 288.634 251.543 288.634C251.653 288.634 251.848 288.731 251.977 288.85C252.367 289.211 252.499 289.307 252.606 289.307C252.661 289.307 252.707 289.351 252.707 289.404C252.707 289.457 252.791 289.5 252.895 289.5C252.998 289.5 253.168 289.608 253.274 289.74C253.379 289.873 253.525 289.981 253.598 289.981C253.671 289.981 253.786 290.067 253.853 290.173C253.92 290.28 254.08 290.366 254.21 290.366C254.345 290.366 254.527 290.468 254.637 290.606C254.742 290.738 254.899 290.847 254.985 290.847C255.071 290.847 255.141 290.896 255.141 290.956C255.141 291.112 255.446 291.321 255.679 291.325C255.788 291.326 255.94 291.414 256.017 291.52C256.098 291.631 256.269 291.712 256.421 291.712C256.586 291.712 256.756 291.802 256.876 291.953C256.994 292.102 257.166 292.193 257.326 292.193C257.468 292.193 257.689 292.291 257.818 292.41C258.209 292.771 258.341 292.867 258.447 292.867C258.503 292.867 258.548 292.91 258.548 292.963C258.548 293.016 258.625 293.061 258.719 293.062C258.929 293.066 259.23 293.283 259.23 293.431C259.23 293.491 259.363 293.54 259.526 293.54C259.713 293.54 259.913 293.63 260.066 293.781C260.2 293.913 260.417 294.021 260.549 294.021C260.68 294.021 260.875 294.108 260.982 294.214C261.09 294.32 261.303 294.406 261.457 294.406C261.795 294.406 262.443 294.66 262.443 294.792C262.443 294.844 262.576 294.887 262.739 294.887C262.926 294.887 263.126 294.976 263.279 295.128C263.413 295.26 263.63 295.368 263.761 295.368C263.894 295.368 264.053 295.453 264.121 295.561C264.209 295.701 264.348 295.753 264.633 295.753C264.876 295.754 265.169 295.843 265.412 295.991C265.627 296.121 265.891 296.229 265.999 296.231C266.108 296.233 266.26 296.321 266.337 296.426C266.414 296.532 266.572 296.619 266.687 296.619C267.094 296.619 267.494 296.738 267.689 296.918C267.829 297.046 268.031 297.1 268.378 297.1C268.648 297.1 268.869 297.143 268.869 297.196C268.869 297.249 268.915 297.292 268.973 297.292C269.03 297.292 269.143 297.357 269.223 297.436C269.306 297.518 269.545 297.581 269.776 297.581C270.248 297.582 270.913 297.746 270.913 297.862C270.913 297.906 271.143 297.968 271.424 298.001C272.397 298.113 272.681 298.181 272.732 298.314C272.768 298.406 272.959 298.447 273.358 298.447C273.675 298.447 273.931 298.489 273.931 298.543C273.931 298.596 274.06 298.639 274.218 298.639C274.375 298.639 274.527 298.676 274.556 298.722C274.636 298.85 275.312 298.937 276.783 299.008C277.605 299.048 278.152 299.115 278.195 299.182C278.233 299.241 278.483 299.322 278.751 299.361C279.459 299.464 289.035 299.508 289.265 299.409Z" fill="#333333"/>
</svg>
