<?xml version="1.0" encoding="UTF-8"?><svg id="uuid-133e7318-b835-4080-a1b3-531c5e7b9e08" xmlns="http://www.w3.org/2000/svg" viewBox="0 0 1181.44 954.41"><defs><style>.uuid-93cfd636-9560-439f-aa97-794044bb2f49{fill:#dc8c23;}.uuid-65e4a911-fb1c-4ead-83cc-8078bdf9493e{fill:#fff;}.uuid-52d5262a-fb53-4c1d-8ec0-753b8ff521cc{fill:#473f44;}.uuid-9776983a-ff8b-49d4-8ab3-e5172724697a{fill:#cd4a27;}.uuid-a1b8f9b4-4ea1-420f-b379-00eb57340c39{fill:#352a42;}.uuid-1615625b-c044-45e3-adee-93c4ff33377c{fill:#705b8a;}.uuid-a6225214-88cf-4987-bc19-787b0dff3ab6,.uuid-af885255-f766-4c23-8407-2288161f4f92{stroke:#352a42;}.uuid-a6225214-88cf-4987-bc19-787b0dff3ab6,.uuid-af885255-f766-4c23-8407-2288161f4f92,.uuid-fe1bf865-d40b-48a2-a671-90d796e573de,.uuid-0b207f94-c367-4b87-af76-4d6bca821bae,.uuid-9c01a039-761d-4712-b5a2-83c770c0ef3c{fill:none;stroke-linecap:round;stroke-linejoin:round;}.uuid-a6225214-88cf-4987-bc19-787b0dff3ab6,.uuid-fe1bf865-d40b-48a2-a671-90d796e573de,.uuid-9c01a039-761d-4712-b5a2-83c770c0ef3c{stroke-width:1.17px;}.uuid-34935ae3-ba54-4b51-bbcb-3e43201c2954{fill:#58466e;}.uuid-43ede8a8-58aa-4ec6-9fd0-3bd2f93a2cf8{fill:#15101a;}.uuid-af885255-f766-4c23-8407-2288161f4f92{stroke-width:2.35px;}.uuid-c727f658-ccb7-438c-ab86-300ed4ec6bbd{fill:#8c948c;}.uuid-c5d069c1-6a60-4e36-baef-b8025d9af713{fill:#f7b319;}.uuid-e75889db-e34c-48c8-bc37-238ab6968145{fill:#ced9d0;}.uuid-86fc14c6-5092-484d-b880-62c75f67d65f{fill:#e9f5eb;}.uuid-7b6bcd92-3714-42c3-9de2-3ac85738f4c6{fill:#ab4d4d;}.uuid-09e735c0-8e3c-4dcd-8ba8-809e2b5a59a8{fill:#a5ada6;}.uuid-1e37a2fe-aae1-44da-a9a5-ab1ea48c2715{fill:#7b827b;}.uuid-256e38c5-6219-4f9a-ac47-d9106a1fc32f{fill:#423452;}.uuid-fe1bf865-d40b-48a2-a671-90d796e573de{stroke:#bbc4bc;}.uuid-290cbff0-e7ce-4908-a2bc-df8111e6c990{fill:#634e7a;}.uuid-d18df584-529c-4395-a07b-563665887e4e{fill:#222236;}.uuid-fe81a82d-b59a-47b2-8477-a2465975bebc{fill:#bac4bc;}.uuid-7bcb7dea-40cb-47a6-b4ef-d0f377c88ba4{fill:#948ea3;}.uuid-ec464f20-0ba2-49d3-89ac-aae610235ab5{fill:#f1f1f1;}.uuid-4bb62a81-01d2-46c6-ae7c-0425f2308f73{fill:#cd4b28;}.uuid-0b207f94-c367-4b87-af76-4d6bca821bae{stroke:#093373;stroke-width:1.06px;}.uuid-e0fdad31-e1e1-4fb1-b86d-d065a3422490{fill:#afaca7;}.uuid-3d02a4bc-2a5b-4ce9-92eb-aa116fa0400b{fill:#f86d11;}.uuid-f2dfaee5-ea03-4e1b-8b02-1ec6facf78df{fill:#f26e22;}.uuid-9953d761-b85f-4dc0-9233-5e946d701ba1{fill:#f6b219;}.uuid-51cad030-2443-4fb7-bce9-d34a81299b9f{fill:#453757;}.uuid-9c01a039-761d-4712-b5a2-83c770c0ef3c{stroke:#dbe6dc;}</style></defs><g><ellipse class="uuid-9776983a-ff8b-49d4-8ab3-e5172724697a" cx="471.32" cy="406.41" rx="70.41" ry="37.8"/><g><path class="uuid-34935ae3-ba54-4b51-bbcb-3e43201c2954" d="M471.32,410.8h0c-3.77,0-6.85-3.08-6.85-6.85v-96.75c0-3.77,3.08-6.85,6.85-6.85h0c3.77,0,6.85,3.08,6.85,6.85v96.75c0,3.77-3.08,6.85-6.85,6.85Z"/><path class="uuid-93cfd636-9560-439f-aa97-794044bb2f49" d="M533.47,213.35c.49-3.67,.75-7.44,.75-11.27,0-17.5-5.3-33.56-14.12-46.14,1.22-5.05,1.88-10.38,1.88-15.88,0-32.52-22.68-58.89-50.66-58.89s-50.66,26.36-50.66,58.89c0,5.5,.66,10.83,1.88,15.88-8.82,12.59-14.12,28.64-14.12,46.14,0,3.83,.26,7.6,.75,11.27-15.47,13.19-25.02,31.28-25.02,51.25,0,40.38,39.03,73.11,87.17,73.11s87.17-32.73,87.17-73.11c0-19.96-9.55-38.05-25.02-51.25Z"/><path class="uuid-9953d761-b85f-4dc0-9233-5e946d701ba1" d="M533.47,213.35c.49-3.67,.75-7.44,.75-11.27,0-17.5-5.3-33.56-14.12-46.14,1.22-5.05,1.88-10.38,1.88-15.88,0-24.53-12.9-45.54-31.25-54.4-19.42,121.06,36.82,176.08-47.73,248.09,8.88,2.56,18.4,3.97,28.31,3.97,48.14,0,87.17-32.73,87.17-73.11,0-19.96-9.55-38.05-25.02-51.25Z"/></g></g><g><path class="uuid-e0fdad31-e1e1-4fb1-b86d-d065a3422490" d="M422.93,945.94L78.38,747.01c-21.76-12.56-19-34.71,6.12-49.21L736.98,321.09c25.12-14.5,63.48-16.09,85.24-3.53l344.55,198.93c21.76,12.56,19,34.71-6.12,49.21L508.16,942.41c-25.12,14.5-63.48,16.09-85.24,3.53Z"/><path class="uuid-a1b8f9b4-4ea1-420f-b379-00eb57340c39" d="M1119.12,537.59l-.02-.47c0-.06,0-.12,0-.18l-1.34-30.85-24.2,4.11-333.66-192.64c-21.76-12.56-60.11-10.97-85.24,3.53L36.53,689.51,0,695.71l1.37,29.87h.05c-.03,8.04,4.74,15.73,14.62,21.44l344.55,198.93c21.76,12.56,60.11,10.97,85.24-3.53l652.48-376.71c13.87-8.01,20.88-18.34,20.76-28.1h.04Z"/><path class="uuid-290cbff0-e7ce-4908-a2bc-df8111e6c990" d="M390.52,485.13L36.53,689.51,0,695.71l1.37,29.87h.05c-.03,8.04,4.74,15.73,14.62,21.44l344.55,198.93c10.63,6.14,25.22,8.9,40.3,8.42l-10.38-469.23Z"/><path class="uuid-ec464f20-0ba2-49d3-89ac-aae610235ab5" d="M359.23,916.08L14.68,717.15c-21.76-12.56-19-34.71,6.12-49.21L673.28,291.23c25.12-14.5,63.48-16.09,85.24-3.53l344.55,198.93c21.76,12.56,19,34.71-6.12,49.21L444.47,912.54c-25.12,14.5-63.48,16.09-85.24,3.53Z"/><polygon class="uuid-3d02a4bc-2a5b-4ce9-92eb-aa116fa0400b" points="447.31 911.32 17.85 670.16 678 289.14 1101.33 533.07 447.31 911.32"/></g><path class="uuid-9776983a-ff8b-49d4-8ab3-e5172724697a" d="M571.12,456.96c-1.93-3.28-5.08-5.82-8.99-7.57,.76-2.38,1.09-4.87,.9-7.42-1.07-14.76-18.57-25.91-39.08-24.91-12.35,.6-22.97,5.47-29.24,12.47-1.81-.03-3.64,0-5.49,.11-30.41,1.72-53.58,20.85-51.75,42.73,1.84,21.88,27.98,38.23,58.4,36.51,18.14-1.03,33.7-8.25,42.92-18.55,4.62-.32,9.4-1.34,14.04-3.18,16.15-6.4,24.34-19.91,18.3-30.19Z"/><g><ellipse class="uuid-9953d761-b85f-4dc0-9233-5e946d701ba1" cx="461" cy="464.38" rx="55.2" ry="48.4" transform="translate(-30.81 32.76) rotate(-3.94)"/><ellipse class="uuid-9953d761-b85f-4dc0-9233-5e946d701ba1" cx="494.33" cy="433.32" rx="37.21" ry="32.62" transform="translate(-24.83 30.08) rotate(-3.4)"/><ellipse class="uuid-9953d761-b85f-4dc0-9233-5e946d701ba1" cx="510.33" cy="463.5" rx="32.47" ry="25.18" transform="translate(-150.73 267.89) rotate(-25.76)"/><path class="uuid-93cfd636-9560-439f-aa97-794044bb2f49" d="M481.34,438.85c2.16,9.36-7.46,19.57-21.49,22.81-14.03,3.24-27.16-1.71-29.32-11.07s7.46-19.57,21.49-22.81c14.03-3.24,27.16,1.71,29.32,11.07Z"/></g><polygon class="uuid-9776983a-ff8b-49d4-8ab3-e5172724697a" points="710.19 612.21 832.61 601.88 1033.88 494.13 941.29 440.43 710.19 612.21"/><path class="uuid-9776983a-ff8b-49d4-8ab3-e5172724697a" d="M1000.11,490.65c-16.25,0-30.9,4.29-41.34,11.18-4.72-1.41-9.99-2.2-15.55-2.2-20.18,0-36.55,10.39-36.55,23.21s16.36,23.21,36.55,23.21c2.54,0,5.03-.17,7.43-.48,9.98,10.75,28.39,17.98,49.47,17.98,31.7,0,57.39-16.32,57.39-36.44s-25.69-36.44-57.39-36.44Z"/><polygon class="uuid-7bcb7dea-40cb-47a6-b4ef-d0f377c88ba4" points="17.85 669.74 201.61 563.54 640.12 799.5 447.31 910.9 17.85 669.74"/><g><path class="uuid-65e4a911-fb1c-4ead-83cc-8078bdf9493e" d="M172.99,663.29l1.07-.65c3.77-2.31,3.31-6.22-1.03-8.7l-28.58-16.33c-4.34-2.48-10.97-2.62-14.74-.31l-1.07,.65c-3.77,2.31-3.31,6.22,1.03,8.7l28.58,16.33c4.34,2.48,10.97,2.62,14.74,.31Z"/><path class="uuid-65e4a911-fb1c-4ead-83cc-8078bdf9493e" d="M254.46,709.73l1.07-.65c3.77-2.31,3.31-6.22-1.03-8.7l-28.58-16.33c-4.34-2.48-10.97-2.62-14.74-.31l-1.07,.65c-3.77,2.31-3.31,6.22,1.03,8.7l28.58,16.33c4.34,2.48,10.97,2.62,14.74,.31Z"/><path class="uuid-65e4a911-fb1c-4ead-83cc-8078bdf9493e" d="M335.92,756.17l1.07-.65c3.77-2.31,3.31-6.22-1.03-8.7l-28.57-16.33c-4.34-2.48-10.97-2.62-14.74-.31l-1.07,.65c-3.77,2.31-3.31,6.22,1.03,8.7l28.58,16.33c4.34,2.48,10.97,2.62,14.74,.31Z"/><path class="uuid-65e4a911-fb1c-4ead-83cc-8078bdf9493e" d="M417.39,802.6l1.07-.65c3.77-2.31,3.31-6.22-1.03-8.7l-28.58-16.33c-4.34-2.48-10.97-2.62-14.74-.31l-1.07,.65c-3.77,2.31-3.31,6.22,1.03,8.7l28.58,16.33c4.34,2.48,10.97,2.62,14.74,.31Z"/><path class="uuid-65e4a911-fb1c-4ead-83cc-8078bdf9493e" d="M498.85,849.04l1.07-.65c3.77-2.31,3.31-6.22-1.03-8.7l-28.58-16.33c-4.34-2.48-10.97-2.62-14.74-.31l-1.07,.65c-3.77,2.31-3.31,6.22,1.03,8.7l28.58,16.33c4.34,2.48,10.97,2.62,14.74,.31Z"/></g><polygon class="uuid-65e4a911-fb1c-4ead-83cc-8078bdf9493e" points="201.61 563.54 640.12 799.5 605.45 819.53 172.9 580.12 201.61 563.54"/><path class="uuid-9776983a-ff8b-49d4-8ab3-e5172724697a" d="M409.11,533.97c7.48,3.86,11.21,2.86,9.51-1.94,.77-.07,1.49-.22,2.13-.46,5.34-1.99,3.51-9.14-4.08-15.98-7.59-6.84-18.08-10.77-23.42-8.78-.35,.13-.66,.29-.95,.46-7.93-3.78-11.1-1.6-7.17,5.12l-4.95,6.56c-.5,.55-.49,1.52,.15,2.87,.36,.77,.92,1.6,1.59,2.45l-30.94,12.11c-.62-.41-1.24-.79-1.84-1.1-.21-.11-.42-.21-.62-.3-2.96-1.35-4.1-.45-2.52,2.18h0s-.01,.22,.04,.59l-88.44,21.19h0c-2.4,.37-3.11,2.35-1.51,5.73,2.81,5.95,11.67,13.94,19.8,17.87,4.15,2,7.29,2.55,9.01,1.82h0l.16-.08c.13-.07,.26-.13,.37-.21l68.71-39.07c.23,.08,.46,.15,.69,.22l-.04-.04c.15,.08,.3,.18,.45,.26,3.42,1.76,4.82,.92,3.14-1.88-.17-.29-.39-.59-.61-.9l31.06-12.15c1.04,.69,2.1,1.32,3.14,1.83,2.4,1.16,4.23,1.49,5.25,1.09h10.87c.35,.19,.69,.39,1.03,.57Z"/><g><path class="uuid-52d5262a-fb53-4c1d-8ec0-753b8ff521cc" d="M265.03,430.79c3.44-1.73,9.35-1.71,13.21,.03,3.86,1.74,4.2,4.55,.76,6.28-3.62-3.25-10.33-3.44-13.21-.03-3.86-1.74-4.2-4.55-.76-6.28Z"/><polygon class="uuid-ec464f20-0ba2-49d3-89ac-aae610235ab5" points="277.7 580.01 267.74 574.32 266.74 367.62 276.7 373.3 277.7 580.01"/><polygon class="uuid-256e38c5-6219-4f9a-ac47-d9106a1fc32f" points="292.35 573.57 252.19 572.17 266.95 433.15 277.62 433.97 292.35 573.57"/><path class="uuid-256e38c5-6219-4f9a-ac47-d9106a1fc32f" d="M286.45,581.93c-7.88,4.47-20.63,4.35-28.49-.26-7.86-4.61-7.84-11.98,.03-16.45,7.88-4.47,20.63-4.35,28.49,.26,7.86,4.61,7.84,11.98-.03,16.45Z"/><path class="uuid-256e38c5-6219-4f9a-ac47-d9106a1fc32f" d="M280.11,375.53c-4.63,2.63-12.12,2.56-16.74-.15-4.62-2.71-4.61-7.04,.02-9.67s12.12-2.56,16.74,.15c4.62,2.71,4.61,7.04-.02,9.67Z"/><path class="uuid-256e38c5-6219-4f9a-ac47-d9106a1fc32f" d="M252.07,349.03l8.02,22.67,23.49-1,7.68-21.39s-40.07-.53-39.19-.29Z"/><path class="uuid-d18df584-529c-4395-a07b-563665887e4e" d="M255.22,357.14s14.72,19.38,33.02,.58l-33.02-.58Z"/><ellipse class="uuid-256e38c5-6219-4f9a-ac47-d9106a1fc32f" cx="271.3" cy="349.07" rx="11.43" ry="24.17" transform="translate(-87.76 607.01) rotate(-87.84)"/><path class="uuid-d18df584-529c-4395-a07b-563665887e4e" d="M265.78,437.07s5.7,7.51,12.79,.22l-12.79-.22Z"/><path class="uuid-256e38c5-6219-4f9a-ac47-d9106a1fc32f" d="M279,437.1c-3.44,1.73-9.35,1.71-13.21-.03-3.86-1.74-4.2-4.55-.76-6.28,3.62,3.25,10.33,3.44,13.21,.03,3.86,1.74,4.2,4.55,.76,6.28Z"/><ellipse class="uuid-ec464f20-0ba2-49d3-89ac-aae610235ab5" cx="271.88" cy="339.9" rx="16.41" ry="19.76" transform="translate(-70.03 609.25) rotate(-89.57)"/></g><polygon class="uuid-9776983a-ff8b-49d4-8ab3-e5172724697a" points="571.19 532.03 375.67 657.2 454.35 699.54 644.85 574.56 571.19 532.03"/><path class="uuid-43ede8a8-58aa-4ec6-9fd0-3bd2f93a2cf8" d="M43.35,746.99c0,4.79-3.59,6.96-8.01,4.85-4.43-2.11-8.01-7.7-8.01-12.49s3.59-6.96,8.01-4.85c4.43,2.11,8.01,7.7,8.01,12.49Z"/><path class="uuid-86fc14c6-5092-484d-b880-62c75f67d65f" d="M1076.79,566.84l-16.96,9.43c-1.28,.71-2.33-.48-2.33-2.66v-.76c0-2.17,1.05-4.53,2.33-5.24l16.96-9.43c1.28-.71,2.33,.48,2.33,2.66v.76c0,2.17-1.05,4.53-2.33,5.24Z"/><path class="uuid-86fc14c6-5092-484d-b880-62c75f67d65f" d="M1046.88,584.17l-16.96,9.43c-1.28,.71-2.33-.48-2.33-2.66v-.76c0-2.17,1.05-4.53,2.33-5.24l16.96-9.43c1.28-.71,2.33,.48,2.33,2.66v.76c0,2.17-1.05,4.53-2.33,5.24Z"/><g><polygon class="uuid-ec464f20-0ba2-49d3-89ac-aae610235ab5" points="512.26 489.05 510.7 299.29 586.61 252.63 619.03 255.57 742.98 369.42 744.97 610.76 700.39 587.42 700.39 587.51 512.26 489.05"/><polygon class="uuid-ec464f20-0ba2-49d3-89ac-aae610235ab5" points="742.98 369.65 774.17 350.83 774.16 350.19 776.81 349.23 904.16 309.46 910.64 303.01 982.98 311.64 981.38 468.26 799.89 577.82 799.89 577.6 744.97 610.76 742.98 369.65"/><polygon class="uuid-c727f658-ccb7-438c-ab86-300ed4ec6bbd" points="743.86 615.84 744.81 591.25 512.1 469.6 512.19 491.74 743.86 615.84"/><polygon class="uuid-1e37a2fe-aae1-44da-a9a5-ab1ea48c2715" points="745.02 616.99 744.81 591.25 981.59 448.46 981.38 474.4 745.02 616.99"/><line class="uuid-0b207f94-c367-4b87-af76-4d6bca821bae" x1="777.69" y1="153.55" x2="779.53" y2="275.98"/><g><line class="uuid-fe1bf865-d40b-48a2-a671-90d796e573de" x1="743.92" y1="472.57" x2="982.66" y2="332.95"/><line class="uuid-fe1bf865-d40b-48a2-a671-90d796e573de" x1="743.92" y1="498.58" x2="982.66" y2="358.96"/><line class="uuid-fe1bf865-d40b-48a2-a671-90d796e573de" x1="743.92" y1="524.59" x2="982.66" y2="384.97"/><line class="uuid-fe1bf865-d40b-48a2-a671-90d796e573de" x1="743.92" y1="550.6" x2="982.66" y2="410.99"/><line class="uuid-fe1bf865-d40b-48a2-a671-90d796e573de" x1="743.92" y1="576.62" x2="982.66" y2="437"/></g><line class="uuid-9c01a039-761d-4712-b5a2-83c770c0ef3c" x1="743.92" y1="472.57" x2="512.1" y2="344.95"/><line class="uuid-9c01a039-761d-4712-b5a2-83c770c0ef3c" x1="743.92" y1="445.43" x2="511.22" y2="317.32"/><line class="uuid-9c01a039-761d-4712-b5a2-83c770c0ef3c" x1="704.07" y1="396.35" x2="525.52" y2="298.06"/><line class="uuid-9c01a039-761d-4712-b5a2-83c770c0ef3c" x1="672.19" y1="351.66" x2="550.5" y2="284.67"/><line class="uuid-9c01a039-761d-4712-b5a2-83c770c0ef3c" x1="637.99" y1="305.69" x2="576.89" y2="272.05"/><line class="uuid-9c01a039-761d-4712-b5a2-83c770c0ef3c" x1="743.92" y1="498.58" x2="512.1" y2="370.96"/><line class="uuid-9c01a039-761d-4712-b5a2-83c770c0ef3c" x1="743.92" y1="524.59" x2="512.1" y2="396.98"/><line class="uuid-9c01a039-761d-4712-b5a2-83c770c0ef3c" x1="743.92" y1="550.6" x2="512.1" y2="422.99"/><line class="uuid-9c01a039-761d-4712-b5a2-83c770c0ef3c" x1="743.92" y1="576.62" x2="512.1" y2="449"/><g><polygon class="uuid-51cad030-2443-4fb7-bce9-d34a81299b9f" points="804.92 508.74 845.83 484.04 845.3 419.27 804.39 443.97 804.92 508.74"/><polygon class="uuid-65e4a911-fb1c-4ead-83cc-8078bdf9493e" points="804.92 508.74 804.39 443.97 838.15 423.59 838.69 488.35 804.92 508.74"/><polygon class="uuid-51cad030-2443-4fb7-bce9-d34a81299b9f" points="804.85 499.59 804.44 450.7 829.94 435.31 830.34 484.21 804.85 499.59"/></g><g><polygon class="uuid-51cad030-2443-4fb7-bce9-d34a81299b9f" points="894.93 456.1 935.84 431.41 935.31 366.64 894.39 391.34 894.93 456.1"/><polygon class="uuid-65e4a911-fb1c-4ead-83cc-8078bdf9493e" points="894.93 456.1 894.39 391.34 928.16 370.96 928.69 435.72 894.93 456.1"/><polygon class="uuid-51cad030-2443-4fb7-bce9-d34a81299b9f" points="894.85 446.96 894.45 398.07 919.94 382.68 920.35 431.57 894.85 446.96"/></g><g><polygon class="uuid-51cad030-2443-4fb7-bce9-d34a81299b9f" points="567.34 446.74 526.05 425.12 525.52 360.36 566.81 381.97 567.34 446.74"/><polygon class="uuid-65e4a911-fb1c-4ead-83cc-8078bdf9493e" points="567.34 446.74 566.81 381.97 532.73 364.13 533.26 428.9 567.34 446.74"/><polygon class="uuid-51cad030-2443-4fb7-bce9-d34a81299b9f" points="567.27 437.59 566.86 388.7 541.13 375.23 541.54 424.13 567.27 437.59"/></g><g><polygon class="uuid-51cad030-2443-4fb7-bce9-d34a81299b9f" points="710.1 514.45 668.81 492.84 668.27 428.08 709.56 449.69 710.1 514.45"/><polygon class="uuid-65e4a911-fb1c-4ead-83cc-8078bdf9493e" points="710.1 514.45 709.56 449.69 675.48 431.85 676.02 496.62 710.1 514.45"/><polygon class="uuid-51cad030-2443-4fb7-bce9-d34a81299b9f" points="710.02 505.31 709.62 456.42 683.89 442.95 684.29 491.85 710.02 505.31"/></g><g><polygon class="uuid-51cad030-2443-4fb7-bce9-d34a81299b9f" points="589.08 387.78 590.13 515.5 638.12 540.61 638.12 540.51 649.56 546.5 648.51 418.78 589.08 387.78"/><polygon class="uuid-65e4a911-fb1c-4ead-83cc-8078bdf9493e" points="606.55 524.09 638.12 540.61 638.12 540.51 649.56 546.5 648.51 418.78 605.5 396.35 606.55 524.09"/><polygon class="uuid-51cad030-2443-4fb7-bce9-d34a81299b9f" points="644.56 458.59 616.12 443.71 615.87 413.12 644.3 428 644.56 458.59"/><path class="uuid-51cad030-2443-4fb7-bce9-d34a81299b9f" d="M610.9,471.76h0c-1.13-.56-2.06-1.92-2.07-3.02l-.07-8.79c0-1.1,.91-1.53,2.04-.97h0c1.13,.56,2.06,1.92,2.07,3.02l.07,8.79c0,1.1-.91,1.53-2.04,.97Z"/><polygon class="uuid-c727f658-ccb7-438c-ab86-300ed4ec6bbd" points="517.55 527.43 517.75 551.68 634.72 612.9 683.63 583.38 683.43 559.12 517.55 527.43"/><polygon class="uuid-1e37a2fe-aae1-44da-a9a5-ab1ea48c2715" points="634.52 588.65 634.72 612.9 683.63 583.38 683.43 559.12 634.52 588.65"/><polygon class="uuid-e75889db-e34c-48c8-bc37-238ab6968145" points="683.43 559.12 566.46 497.91 517.55 527.43 634.52 588.65 683.43 559.12"/></g><polygon class="uuid-3d02a4bc-2a5b-4ce9-92eb-aa116fa0400b" points="842.86 122.39 982.9 306.51 746.12 446.59 608.46 255.88 842.86 122.39"/><polygon class="uuid-3d02a4bc-2a5b-4ce9-92eb-aa116fa0400b" points="608.46 255.88 474.72 315.89 534.31 275.43 754.68 155.59 842.86 122.39 608.46 255.88"/><path class="uuid-9776983a-ff8b-49d4-8ab3-e5172724697a" d="M982.9,306.51l-236.79,140.07-137.65-190.7-2.1,8.72,136.69,186.14c1.69,2.3,4.83,2.94,7.29,1.5l227.93-133.88c2.91-1.71,4.69-4.85,4.66-8.22l-.03-3.64Z"/><path class="uuid-9776983a-ff8b-49d4-8ab3-e5172724697a" d="M608.53,263.6l-128.15,55.96c-2.66,1.16-5.64-.77-5.66-3.67h0l133.75-60.01,.06,7.72Z"/><g><ellipse class="uuid-4bb62a81-01d2-46c6-ae7c-0425f2308f73" cx="778.9" cy="270.91" rx="22.14" ry="27.16" transform="translate(205.73 863.83) rotate(-65.15)"/><path class="uuid-e75889db-e34c-48c8-bc37-238ab6968145" d="M762.64,59.4c-24.13,13.91-43.7,47.76-43.72,75.61-.02,27.85,19.53,39.15,43.66,25.24,24.13-13.91,43.7-47.76,43.72-75.61,.02-27.85-19.53-39.15-43.66-25.24Zm6.53,36.9c-1.25-4.16-.19-10.27,3.15-16.06,3.44-5.94,8.37-9.96,12.69-10.82,2.42,9.11-9.28,26.1-15.84,26.88Z"/><polygon class="uuid-e75889db-e34c-48c8-bc37-238ab6968145" points="777.69 277.43 778.9 100.44 746.31 119.23 746.23 244.47 759.01 265.47 777.69 277.43"/><polygon class="uuid-fe81a82d-b59a-47b2-8477-a2465975bebc" points="793.98 269.82 794.08 106.66 761.5 125.44 761.42 250.69 777.69 277.43 793.98 269.82"/><path class="uuid-fe81a82d-b59a-47b2-8477-a2465975bebc" d="M777.82,65.62c-24.13,13.91-43.7,47.76-43.72,75.61-.02,27.85,19.53,39.15,43.66,25.24,24.13-13.91,43.7-47.76,43.72-75.61,.02-27.85-19.53-39.15-43.66-25.24Zm12.07,24.78c-4.87,8.42-12.74,12.97-17.6,10.16-4.85-2.8-4.84-11.9,.03-20.32s12.74-12.97,17.6-10.16c4.85,2.8,4.84,11.9-.03,20.32Z"/><path class="uuid-09e735c0-8e3c-4dcd-8ba8-809e2b5a59a8" d="M793.3,75.41c.79,4.1-.34,9.68-3.41,14.99-4.87,8.42-12.74,12.97-17.6,10.16-3.17-1.83-4.25-6.36-3.27-11.62-11.37,11.87-19.39,29.35-19.4,44.37-.01,19.79,13.87,27.82,31.02,17.93,17.14-9.88,31.05-33.94,31.06-53.72,0-14.6-7.56-22.79-18.41-22.11Z"/><path class="uuid-a6225214-88cf-4987-bc19-787b0dff3ab6" d="M760.13,100.44c-6.43,10.27-10.49,22.19-10.5,32.88-.01,19.79,13.87,27.82,31.02,17.93,17.14-9.88,31.05-33.94,31.06-53.72,0-6.05-1.29-10.99-3.58-14.66"/><path class="uuid-af885255-f766-4c23-8407-2288161f4f92" d="M746.23,70.53c-8.78-11.78-14.45-26.59-14.45-40.36,0-23.51,16.51-35.06,36.88-25.79,20.37,9.27,36.88,35.83,36.88,59.34s-15.45,34.29-34.9,26.63"/><line class="uuid-a6225214-88cf-4987-bc19-787b0dff3ab6" x1="785.3" y1="149.62" x2="787.15" y2="272.05"/></g><line class="uuid-9776983a-ff8b-49d4-8ab3-e5172724697a" x1="608.46" y1="255.88" x2="742.98" y2="179.27"/></g><g><path class="uuid-9776983a-ff8b-49d4-8ab3-e5172724697a" d="M598.38,730.22h0c.64,5.7,7.62,8.87,12.57,5.71l55.58-35.49c2.3-1.47,3.53-4,3.23-6.64h0c-.64-5.7-7.62-8.87-12.57-5.71l-55.58,35.49c-2.3,1.47-3.53,4-3.23,6.64Z"/><polygon class="uuid-9776983a-ff8b-49d4-8ab3-e5172724697a" points="587.63 664.05 691.38 728.73 726.29 709.28 622.55 644.6 587.63 664.05"/><path class="uuid-7b6bcd92-3714-42c3-9de2-3ac85738f4c6" d="M555.71,661.51l90.65,52.33c4.71,2.72,10.6-.68,10.6-6.12v-45.24c0-2.52-1.35-4.86-3.53-6.12l-90.65-52.33c-4.71-2.72-10.6,.68-10.6,6.12v45.24c0,2.52,1.35,4.86,3.53,6.12Z"/><path class="uuid-34935ae3-ba54-4b51-bbcb-3e43201c2954" d="M599.81,735.45h0c4.94,2.85,11.11-.71,11.11-6.42v-64.08c0-2.65-1.41-5.09-3.7-6.42h0c-4.94-2.85-11.11,.71-11.11,6.42v64.08c0,2.65,1.41,5.09,3.7,6.42Z"/><path class="uuid-f2dfaee5-ea03-4e1b-8b02-1ec6facf78df" d="M552.82,664.29l90.65,52.33c4.71,2.72,10.6-.68,10.6-6.12v-45.24c0-2.52-1.35-4.86-3.53-6.12l-90.65-52.33c-4.71-2.72-10.6,.68-10.6,6.12v45.24c0,2.52,1.35,4.86,3.53,6.12Z"/></g><g><path class="uuid-65e4a911-fb1c-4ead-83cc-8078bdf9493e" d="M557.49,647.12l3.79-3.04c1.78,2.67,4.02,5.11,5.87,6.18,2.01,1.16,2.86,.9,2.86-.39,0-1.37-1.27-2.55-3.4-4.75l-3.13-3.31c-2.7-2.8-5.06-6.78-5.06-10.94,0-4.92,3.86-6.72,9.35-3.56,2.86,1.65,6.03,4.72,8.34,8.67l-3.32,2.87c-1.7-2.36-3.17-3.91-5.02-4.98-1.62-.94-2.63-.85-2.63,.43,0,1.37,1.43,2.69,3.71,5.02l3.05,3.14c3.13,3.22,4.91,6.73,4.91,10.72,0,4.88-3.55,7.17-9.81,3.55-3.17-1.83-6.8-5.25-9.5-9.61Z"/><path class="uuid-65e4a911-fb1c-4ead-83cc-8078bdf9493e" d="M585.3,637.96l8.03,4.64,7.65,33.22-7.03-4.06-1.24-6.83-7.03-4.06-1.24,5.4-6.8-3.92,7.65-24.39Zm1.58,17.71l4.64,2.68-.42-2.24c-.62-3.1-1.24-6.96-1.85-10.2l-.15-.09c-.54,2.61-1.16,5.71-1.78,8.1l-.42,1.75Z"/><path class="uuid-65e4a911-fb1c-4ead-83cc-8078bdf9493e" d="M603.37,648.39l6.64,3.84v22.43l9.5,5.49v6.38l-16.14-9.32v-28.81Z"/><path class="uuid-65e4a911-fb1c-4ead-83cc-8078bdf9493e" d="M623.84,660.21l16.22,9.37v6.38l-9.58-5.53v4.52l8.19,4.73v6.38l-8.19-4.73v5.14l9.97,5.75v6.38l-16.61-9.59v-28.81Z"/></g><g><path class="uuid-9776983a-ff8b-49d4-8ab3-e5172724697a" d="M848.03,599.24c.53-2.13,.83-4.34,.85-6.61,.21-17.87-16.14-32.55-36.52-32.78-13.05-.15-24.59,5.66-31.25,14.55-1.15-.08-2.3-.14-3.47-.15-28.88-.34-52.53,19.91-52.83,45.23-.3,25.32,22.88,46.12,51.76,46.46,13.22,.15,25.34-4.02,34.64-11.01,4.64,1.92,9.81,3.03,15.27,3.09,20.38,.24,37.07-14.05,37.28-31.92,.13-11.08-6.11-20.92-15.72-26.87Z"/><ellipse class="uuid-9953d761-b85f-4dc0-9233-5e946d701ba1" cx="768.97" cy="607.92" rx="45.85" ry="52.3" transform="translate(152.1 1369.73) rotate(-89.33)"/><ellipse class="uuid-9953d761-b85f-4dc0-9233-5e946d701ba1" cx="803.84" cy="580.03" rx="32.35" ry="36.9" transform="translate(214.46 1377.03) rotate(-89.33)"/><ellipse class="uuid-9953d761-b85f-4dc0-9233-5e946d701ba1" cx="818.71" cy="613.5" rx="32.35" ry="36.9" transform="translate(195.68 1424.98) rotate(-89.33)"/><ellipse class="uuid-93cfd636-9560-439f-aa97-794044bb2f49" cx="764.27" cy="589.19" rx="24.7" ry="16.47" transform="translate(-77.93 118.07) rotate(-8.41)"/></g><polygon class="uuid-9776983a-ff8b-49d4-8ab3-e5172724697a" points="634.72 612.9 675.42 608.06 701.39 593.07 683.63 583.38 634.72 612.9"/><polygon class="uuid-1615625b-c044-45e3-adee-93c4ff33377c" points="804.85 499.59 830.34 484.21 829.94 435.31 824.96 438.32 825.16 481.31 804.76 493.28 804.85 499.59"/><polygon class="uuid-1615625b-c044-45e3-adee-93c4ff33377c" points="894.7 446.96 920.19 431.57 919.79 382.68 914.81 385.69 915.01 428.68 894.61 440.65 894.7 446.96"/><polygon class="uuid-1615625b-c044-45e3-adee-93c4ff33377c" points="567.27 437.59 541.41 424.28 541.13 375.23 546 377.78 546.59 421.39 567.27 431.78 567.27 437.59"/><polygon class="uuid-1615625b-c044-45e3-adee-93c4ff33377c" points="710.02 505.31 684.16 492 683.89 442.95 688.76 445.5 689.34 489.1 710.02 499.5 710.02 505.31"/><polygon class="uuid-1615625b-c044-45e3-adee-93c4ff33377c" points="615.87 413.12 616.12 443.71 644.56 458.59 644.56 454.35 619.91 441.15 619.66 415.1 615.87 413.12"/><g><path class="uuid-9953d761-b85f-4dc0-9233-5e946d701ba1" d="M961.45,375.15c0,20.37,18.57,43.76,41.81,43.76s46.64-18.71,46.64-39.08-18.84-36.89-42.08-36.89-46.37,11.84-46.37,32.21Z"/><path class="uuid-34935ae3-ba54-4b51-bbcb-3e43201c2954" d="M1004.6,542.47h0c4.03,0,7.33-3.3,7.33-7.33v-159.21c0-4.03-3.3-7.33-7.33-7.33h0c-4.03,0-7.33,3.3-7.33,7.33v159.21c0,4.03,3.3,7.33,7.33,7.33Z"/><path class="uuid-9953d761-b85f-4dc0-9233-5e946d701ba1" d="M984.77,341.08c0,29.5,19.97,61.02,53.62,61.02s63.61-22.24,63.61-51.74c0-29.5-22.64-62.7-56.3-62.7s-60.93,23.92-60.93,53.42Z"/><path class="uuid-9953d761-b85f-4dc0-9233-5e946d701ba1" d="M923.83,335.17c0,29.5,27.28,45.51,60.93,45.51s60.93-23.92,60.93-53.42-27.28-53.42-60.93-53.42-60.93,31.83-60.93,61.33Z"/><path class="uuid-34935ae3-ba54-4b51-bbcb-3e43201c2954" d="M1006.5,435.18c-5.94-1.07-11.8-2.48-17.56-4.27-2.78-.86-5.53-1.81-8.26-2.84-1.36-.51-2.71-1.06-4.06-1.6-1.56-.63,.81,.37-.6-.25-.76-.34-1.52-.67-2.28-1.01-5.3-2.4-10.46-5.12-15.45-8.13-2.49-1.51-4.94-3.09-7.33-4.74-1.2-.83-2.38-1.67-3.55-2.54-.67-.49-1.33-.99-2-1.5,1.24,.94-.81-.64-1.02-.81-2.91-2.31-7.27-3.05-10.07,0-2.37,2.58-3.11,7.59,0,10.07,19.88,15.82,43.32,26.85,68.39,31.36,3.65,.66,7.85-.99,8.76-4.97,.79-3.48-1.05-8.05-4.97-8.76h0Z"/><path class="uuid-9953d761-b85f-4dc0-9233-5e946d701ba1" d="M902.1,412.5c0,20.7,19.14,37.49,42.76,37.49,23.61,0,42.76-16.78,42.76-37.49s-27.25-36.8-50.86-36.8-34.65,16.1-34.65,36.8Z"/><path class="uuid-9953d761-b85f-4dc0-9233-5e946d701ba1" d="M1002.52,269.84c-15.73,13.46-16.04,38.91-.69,56.86,15.35,17.94,40.55,21.58,56.28,8.12,15.73-13.46,10.25-44.63-5.1-62.57-15.35-17.94-34.76-15.86-50.49-2.4Z"/><path class="uuid-9953d761-b85f-4dc0-9233-5e946d701ba1" d="M913.07,434.42c0,14.11,12.86,30.31,28.96,30.31,16.09,0,32.3-12.96,32.3-27.07s-13.05-25.55-29.14-25.55-32.12,8.2-32.12,22.31Z"/><ellipse class="uuid-93cfd636-9560-439f-aa97-794044bb2f49" cx="927.64" cy="396.41" rx="18.72" ry="12.49" transform="translate(-72.5 264.58) rotate(-15.63)"/><ellipse class="uuid-93cfd636-9560-439f-aa97-794044bb2f49" cx="1024.5" cy="279.82" rx="18.72" ry="12.49" transform="translate(-36.35 229.83) rotate(-12.58)"/><ellipse class="uuid-93cfd636-9560-439f-aa97-794044bb2f49" cx="971.98" cy="316.28" rx="37.36" ry="24.92" transform="translate(-48.58 373.09) rotate(-21.21)"/></g><path class="uuid-43ede8a8-58aa-4ec6-9fd0-3bd2f93a2cf8" d="M204.86,846.33l-34.88-19.89c-2.41-1.37-4.38-4.71-4.38-7.41h0c0-2.7,1.97-3.79,4.38-2.41l34.88,19.89c2.41,1.37,4.38,4.71,4.38,7.41h0c0,2.7-1.97,3.79-4.38,2.41Z"/><ellipse class="uuid-9776983a-ff8b-49d4-8ab3-e5172724697a" cx="370.76" cy="626.33" rx="20.86" ry="9.59"/><g><path class="uuid-93cfd636-9560-439f-aa97-794044bb2f49" d="M403.03,541.09c-.21-20.79-14.59-43.56-32.13-50.86-7.56-3.15-14.46-2.9-19.86,.06h0l-.1,.05c-.15,.09-.31,.18-.46,.27l-9.35,5.46,2.93,.78c-2.95,4.5-4.62,10.56-4.55,17.82,.07,6.55,1.54,13.29,4.07,19.69l-.08-.03,18.64,45.85c1.32,3.24,3.21,5.93,5.34,7.92l2.51,8.65,9.38-5.49h0c1.12-.61,2.09-1.56,2.84-2.91l17.15-30.77-.06-.03c2.43-4.33,3.78-9.9,3.71-16.45Zm-31.59,3.5c-8.31-3.46-15.13-14.25-15.23-24.11-.1-9.86,6.56-15.04,14.88-11.58,8.31,3.46,15.13,14.25,15.23,24.11,.1,9.86-6.56,15.04-14.88,11.58Z"/><path class="uuid-c5d069c1-6a60-4e36-baef-b8025d9af713" d="M333.86,540.03l-.08-.03,18.64,45.85c4.53,11.14,15.85,15.75,20.07,8.17l17.15-30.77-.06-.03c2.43-4.33,3.78-9.9,3.71-16.45-.21-20.79-14.59-43.57-32.13-50.86-17.54-7.3-31.59,3.64-31.38,24.43,.07,6.55,1.54,13.29,4.07,19.69Zm12.62-13.87c-.1-9.86,6.56-15.04,14.88-11.58,8.31,3.46,15.13,14.25,15.23,24.11,.1,9.86-6.56,15.04-14.88,11.58-8.31-3.46-15.13-14.25-15.23-24.11Z"/></g></svg>