<svg width="734" height="734" viewBox="0 0 734 734" fill="none" xmlns="http://www.w3.org/2000/svg">
<path fill-rule="evenodd" clip-rule="evenodd" d="M0.333252 366.999C0.333252 164.494 164.496 0.332031 367 0.332031C569.503 0.332031 733.667 164.494 733.667 366.999C733.667 569.502 569.503 733.665 367 733.665C164.496 733.665 0.333252 569.502 0.333252 366.999ZM580.86 290.467C593.85 277.421 593.803 256.316 580.757 243.327L557.137 219.807C544.09 206.818 522.987 206.863 509.997 219.909L317.61 413.125L206.908 303.962C193.799 291.038 172.694 291.185 159.768 304.295L136.364 328.029C123.438 341.135 123.586 362.242 136.694 375.169L294.637 530.912C307.7 543.795 328.717 543.699 341.663 530.699L580.86 290.467Z" fill="#F86D11"/>
</svg>
